<svg
  width="24.000000"
  height="24.000000"
  viewBox="0 0 24 24"
  fill="none"
  xmlns="http://www.w3.org/2000/svg"
>
  <path
    d="M12.75 3C12.75 2.58 12.41 2.25 12 2.25C11.58 2.25 11.25 2.58 11.25 3L11.25 13.18L7.53 9.46C7.23 9.17 6.76 9.17 6.46 9.46C6.17 9.76 6.17 10.23 6.46 10.53L11.46 15.53C11.54 15.6 11.62 15.65 11.71 15.69C11.8 15.72 11.89 15.75 12 15.75C12.1 15.75 12.19 15.72 12.28 15.69C12.37 15.65 12.45 15.6 12.53 15.53L17.53 10.53C17.82 10.23 17.82 9.76 17.53 9.46C17.23 9.17 16.76 9.17 16.46 9.46L12.75 13.18L12.75 3ZM3 14.25C3.41 14.25 3.75 14.58 3.75 15L3.75 19C3.75 19.33 3.88 19.64 4.11 19.88C4.35 20.11 4.66 20.25 5 20.25L19 20.25C19.33 20.25 19.64 20.11 19.88 19.88C20.11 19.64 20.25 19.33 20.25 19L20.25 15C20.25 14.58 20.58 14.25 21 14.25C21.41 14.25 21.75 14.58 21.75 15L21.75 19C21.75 19.72 21.46 20.42 20.94 20.94C20.42 21.46 19.72 21.75 19 21.75L5 21.75C4.27 21.75 3.57 21.46 3.05 20.94C2.53 20.42 2.25 19.72 2.25 19L2.25 15C2.25 14.58 2.58 14.25 3 14.25Z"
    fill="#000000"
    fill-opacity="1.000000"
    fill-rule="evenodd"
  />
</svg>
