<svg
  width="24"
  height="24"
  viewBox="0 0 24 24"
  fill="none"
  xmlns="http://www.w3.org/2000/svg"
>
  <path
    d="M20 19.2503L20.0771 19.2542C20.4551 19.2928 20.75 19.6121 20.75 20.0003C20.7498 20.3883 20.455 20.7078 20.0771 20.7464L20 20.7503H14C13.5859 20.7503 13.2502 20.4144 13.25 20.0003C13.25 19.5861 13.5858 19.2503 14 19.2503H20ZM13.0322 3.85675C14.0334 2.87853 15.6352 2.80282 16.7275 3.72589L18.9658 5.61749L19.1709 5.8089C20.0713 6.74036 20.1964 8.18299 19.4707 9.25616L19.3027 9.4798L11.3438 19.0179C10.9761 19.4585 10.4809 19.7718 9.92969 19.9163L9.69043 19.9681L6.29199 20.5423C5.22413 20.7228 4.25 19.8997 4.25 18.8167V15.3567C4.25 14.7128 4.47611 14.0885 4.88867 13.5941L12.8408 4.06476L13.0322 3.85675ZM15.7588 4.8714C15.2624 4.45218 14.5351 4.48679 14.0801 4.93097L13.9922 5.02569L12.0967 7.2962L16.207 10.847L18.1504 8.51886L18.2275 8.4173C18.5572 7.92958 18.4999 7.27423 18.0908 6.85089L17.998 6.76397L15.7588 4.8714ZM5.75 18.8167C5.75 18.9714 5.88944 19.0896 6.04199 19.0638L9.44043 18.4886L9.54883 18.4651C9.79947 18.3995 10.0242 18.2573 10.1914 18.0569L15.2451 11.9993L11.1357 8.44855L6.04004 14.556C5.8527 14.7806 5.75 15.0642 5.75 15.3567V18.8167Z"
    fill="black"
  />
</svg>
