<svg
  width="24"
  height="24"
  viewBox="0 0 24 24"
  fill="none"
  xmlns="http://www.w3.org/2000/svg"
>
  <path
    fill-rule="evenodd"
    clip-rule="evenodd"
    d="M5.07056 7.75C3.55177 7.75 2.32056 6.51878 2.32056 5C2.32056 3.48122 3.55177 2.25 5.07056 2.25C6.32933 2.25 7.39057 3.09574 7.71704 4.24998L9.18496 4.25H16.3206V3C16.3206 2.58579 16.6563 2.25 17.0706 2.25H21.0706C21.4848 2.25 21.8206 2.58579 21.8206 3V7C21.8206 7.41421 21.4848 7.75 21.0706 7.75H17.0706C16.6563 7.75 16.3206 7.41421 16.3206 7V5.75H12.3203L12.3203 11.25L16.3206 11.25V10C16.3206 9.58579 16.6563 9.25 17.0706 9.25H21.0706C21.4848 9.25 21.8206 9.58579 21.8206 10V14C21.8206 14.4142 21.4848 14.75 21.0706 14.75H17.0706C16.6563 14.75 16.3206 14.4142 16.3206 14V12.75L12.3203 12.75L12.3204 18.2499L16.3206 18.2499V17C16.3206 16.5858 16.6563 16.25 17.0706 16.25H21.0706C21.4848 16.25 21.8206 16.5858 21.8206 17V21C21.8206 21.4142 21.4848 21.75 21.0706 21.75H17.0706C16.6563 21.75 16.3206 21.4142 16.3206 21V19.7499L11.5703 19.7499C11.1561 19.7499 10.8204 19.4141 10.8204 18.9999L10.8203 5.75002L9.15566 5.75H7.71704C7.39058 6.90425 6.32933 7.75 5.07056 7.75ZM6.32047 4.98484L6.32032 4.99997L6.32047 5.01513C6.31236 5.69851 5.75586 6.25 5.07056 6.25C4.3802 6.25 3.82056 5.69036 3.82056 5C3.82056 4.30964 4.3802 3.75 5.07056 3.75C5.75585 3.75 6.31235 4.30147 6.32047 4.98484ZM20.3206 6.25L17.8206 6.25V3.75H20.3206V6.25ZM17.8206 13.25H20.3206V10.75H17.8206V13.25ZM17.8206 20.25H20.3206V17.75H17.8206V20.25Z"
    fill="black"
  />
</svg>
