<svg width="24" height="24" viewBox="0 0 24 24" fill="none"
     xmlns="http://www.w3.org/2000/svg">
  <path fill-rule="evenodd" clip-rule="evenodd"
        d="M10.9895 3.75C10.8873 3.75 10.7954 3.81224 10.7574 3.90715L10.2875 5.08198C9.90725 6.03257 8.79576 6.45516 7.88003 5.99729L7.24676 5.68065C7.15051 5.63253 7.03427 5.65139 6.95818 5.72748L5.72748 6.95818C5.65139 7.03427 5.63253 7.15051 5.68065 7.24676L5.99729 7.88003C6.45516 8.79576 6.03257 9.90725 5.08197 10.2875L3.90715 10.7574C3.81224 10.7954 3.75 10.8873 3.75 10.9895V13.0105C3.75 13.1127 3.81224 13.2046 3.90715 13.2426L5.08197 13.7125C6.03257 14.0928 6.45516 15.2042 5.99729 16.12L5.68065 16.7532C5.63253 16.8495 5.65139 16.9657 5.72748 17.0418L6.95818 18.2725C7.03427 18.3486 7.15051 18.3675 7.24676 18.3193L7.88003 18.0027C8.79576 17.5448 9.90725 17.9674 10.2875 18.918L10.7574 20.0928C10.7954 20.1878 10.8873 20.25 10.9895 20.25H13.0105C13.1127 20.25 13.2046 20.1878 13.2426 20.0928L13.7125 18.918C14.0928 17.9674 15.2042 17.5448 16.12 18.0027L16.7532 18.3193C16.8495 18.3675 16.9657 18.3486 17.0418 18.2725L18.2725 17.0418C18.3486 16.9657 18.3675 16.8495 18.3193 16.7532L18.0027 16.12C17.5448 15.2042 17.9674 14.0928 18.918 13.7125L20.0928 13.2426C20.1878 13.2046 20.25 13.1127 20.25 13.0105V10.9895C20.25 10.8873 20.1878 10.7954 20.0928 10.7574L18.918 10.2875C17.9674 9.90725 17.5448 8.79576 18.0027 7.88003L18.3193 7.24676C18.3675 7.15051 18.3486 7.03427 18.2725 6.95818L17.0418 5.72748C16.9657 5.65139 16.8495 5.63253 16.7532 5.68065L16.12 5.99729C15.2042 6.45516 14.0928 6.03257 13.7125 5.08198L13.2426 3.90715C13.2046 3.81224 13.1127 3.75 13.0105 3.75H10.9895ZM9.3647 3.35007C9.63046 2.68567 10.2739 2.25 10.9895 2.25H13.0105C13.7261 2.25 14.3695 2.68567 14.6353 3.35007L15.1052 4.52489C15.1595 4.66069 15.3183 4.72106 15.4492 4.65565L16.0824 4.33901C16.7562 4.00215 17.5699 4.13419 18.1025 4.66682L19.3332 5.89752C19.8658 6.43015 19.9979 7.24385 19.661 7.91758L19.3444 8.55085C19.2789 8.68166 19.3393 8.84045 19.4751 8.89477L20.6499 9.3647C21.3143 9.63046 21.75 10.2739 21.75 10.9895V13.0105C21.75 13.7261 21.3143 14.3695 20.6499 14.6353L19.4751 15.1052C19.3393 15.1595 19.2789 15.3183 19.3444 15.4492L19.661 16.0824C19.9979 16.7562 19.8658 17.5699 19.3332 18.1025L18.1025 19.3332C17.5699 19.8658 16.7562 19.9979 16.0824 19.661L15.4492 19.3444C15.3183 19.2789 15.1595 19.3393 15.1052 19.4751L14.6353 20.6499C14.3695 21.3143 13.7261 21.75 13.0105 21.75H10.9895C10.2739 21.75 9.63046 21.3143 9.3647 20.6499L8.89477 19.4751C8.84045 19.3393 8.68167 19.2789 8.55085 19.3444L7.91758 19.661C7.24385 19.9979 6.43015 19.8658 5.89752 19.3332L4.66682 18.1025C4.13419 17.5699 4.00215 16.7562 4.33901 16.0824L4.65565 15.4492C4.72106 15.3183 4.66069 15.1595 4.52489 15.1052L3.35007 14.6353C2.68566 14.3695 2.25 13.7261 2.25 13.0105V10.9895C2.25 10.2739 2.68566 9.63046 3.35007 9.3647L4.52489 8.89477C4.66069 8.84045 4.72106 8.68166 4.65565 8.55085L4.33901 7.91758C4.00215 7.24385 4.13419 6.43015 4.66682 5.89752L5.89752 4.66682C6.43015 4.13419 7.24385 4.00215 7.91758 4.33901L8.55085 4.65565C8.68167 4.72106 8.84045 4.66069 8.89477 4.52489L9.3647 3.35007ZM8.4375 12C8.4375 10.0325 10.0325 8.4375 12 8.4375C13.9675 8.4375 15.5625 10.0325 15.5625 12C15.5625 13.9675 13.9675 15.5625 12 15.5625C10.0325 15.5625 8.4375 13.9675 8.4375 12ZM12 9.9375C10.8609 9.9375 9.9375 10.8609 9.9375 12C9.9375 13.1391 10.8609 14.0625 12 14.0625C13.1391 14.0625 14.0625 13.1391 14.0625 12C14.0625 10.8609 13.1391 9.9375 12 9.9375Z"
        fill="black"/>
</svg>
