<svg
  width="24"
  height="24"
  viewBox="0 0 24 24"
  fill="none"
  xmlns="http://www.w3.org/2000/svg"
>
  <path
    fill-rule="evenodd"
    clip-rule="evenodd"
    d="M8.274 2.25C8.07509 2.25 7.88432 2.32902 7.74367 2.46967L2.46967 7.74367C2.32902 7.88432 2.25 8.07509 2.25 8.274V15.726C2.25 15.9249 2.32902 16.1157 2.46967 16.2563L7.74367 21.5303C7.88432 21.671 8.07509 21.75 8.274 21.75H15.726C15.9249 21.75 16.1157 21.671 16.2563 21.5303L21.5303 16.2563C21.671 16.1157 21.75 15.9249 21.75 15.726V8.274C21.75 8.07509 21.671 7.88432 21.5303 7.74367L16.2563 2.46967C16.1157 2.32902 15.9249 2.25 15.726 2.25H8.274ZM3.75 8.58466L8.58466 3.75H15.4153L20.25 8.58466V15.4153L15.4153 20.25H8.58466L3.75 15.4153V8.58466ZM12 7C12.5523 7 13 7.44772 13 8V12C13 12.5523 12.5523 13 12 13C11.4477 13 11 12.5523 11 12V8C11 7.44772 11.4477 7 12 7ZM11 16C11 15.4477 11.4477 15 12 15H12.01C12.5623 15 13.01 15.4477 13.01 16C13.01 16.5523 12.5623 17 12.01 17H12C11.4477 17 11 16.5523 11 16Z"
    fill="black"
  />
</svg>
