<svg width="24.000000" height="24.000000" viewBox="0 0 24 24" fill="none"
     xmlns="http://www.w3.org/2000/svg"
>
  <path id="Union"
        d="M4.25 5C4.25 3.48 5.48 2.25 7 2.25L12.03 2.25C12.77 2.25 13.48 2.55 14 3.08L16.47 5.62L18.97 8.19C19.47 8.7 19.75 9.39 19.75 10.11L19.75 19C19.75 20.51 18.51 21.75 17 21.75L7 21.75C5.48 21.75 4.25 20.51 4.25 19L4.25 18C4.25 17.58 4.58 17.25 5 17.25C5.41 17.25 5.75 17.58 5.75 18L5.75 19C5.75 19.69 6.3 20.25 7 20.25L17 20.25C17.69 20.25 18.25 19.69 18.25 19L18.25 10.75L14 10.75C13.03 10.75 12.25 9.96 12.25 9L12.25 3.76C12.17 3.75 12.1 3.75 12.03 3.75L7 3.75C6.3 3.75 5.75 4.3 5.75 5L5.75 8C5.75 8.41 5.41 8.75 5 8.75C4.58 8.75 4.25 8.41 4.25 8L4.25 5ZM17.89 9.24L17.9 9.25L14 9.25C13.86 9.25 13.75 9.13 13.75 9L13.75 4.97L15.39 6.67L17.89 9.24ZM8.75 9.5C8.75 9.08 8.41 8.75 8 8.75C7.58 8.75 7.25 9.08 7.25 9.5L7.25 12.25L4.5 12.25C4.08 12.25 3.75 12.58 3.75 13C3.75 13.41 4.08 13.75 4.5 13.75L7.25 13.75L7.25 16.5C7.25 16.91 7.58 17.25 8 17.25C8.41 17.25 8.75 16.91 8.75 16.5L8.75 13.75L11.5 13.75C11.91 13.75 12.25 13.41 12.25 13C12.25 12.58 11.91 12.25 11.5 12.25L8.75 12.25L8.75 9.5Z"
        fill="#000000" fill-rule="evenodd"/>
</svg>
