<svg width="135" height="135" viewBox="0 0 135 135" fill="none" xmlns="http://www.w3.org/2000/svg">
  <style>
    .st0 { fill:#E8E8E8 }
  </style>
  <path class="st0" d="M124.2 82.9515C123.45 86.8586 122.292 90.677 120.734 94.373C118.009 100.836 114.172 106.676 109.321 111.75L107.779 110.232C114.867 102.807 119.915 93.4077 122.015 82.9515H124.2Z" />
<path class="st0" d="M117.832 82.9515C115.861 92.0706 111.43 100.475 104.869 107.356L103.982 106.483C110.118 100.035 114.558 91.9482 116.569 82.95H117.83L117.832 82.9515Z" />
<path class="st0" d="M10.8 82.9515C11.5503 86.8586 12.7077 90.677 14.2662 94.373C16.9914 100.836 20.8282 106.676 25.6791 111.75L27.2209 110.232C20.1328 102.807 15.0852 93.4077 12.9853 82.9515H10.8Z" />
<path class="st0" d="M17.1683 82.9515C19.1385 92.0706 23.5701 100.475 30.1305 107.356L31.0181 106.483C24.8816 100.035 20.4424 91.9482 18.431 82.95H17.1698L17.1683 82.9515Z" />
<path class="st0" d="M79.5673 114.984L86.0054 99.9953C86.1354 99.6925 85.9351 99.3502 85.6063 99.3137L69.4161 97.4939C69.0124 97.4483 68.7295 97.8789 68.9329 98.2288L78.6864 115.037C78.8898 115.389 79.4098 115.357 79.5688 114.984H79.5673Z" />
<path class="st0" d="M65.5869 97.4939L49.3952 99.3137C49.0664 99.3502 48.8661 99.6925 48.9961 99.9953L55.4342 114.984C55.5948 115.357 56.1132 115.387 56.3166 115.037L66.0701 98.2288C66.2735 97.8789 65.9891 97.4483 65.5869 97.4939Z" />
<path class="st0" d="M77.2428 117.517H57.7602C57.3519 117.517 57.1194 117.98 57.3656 118.306L67.107 131.204C67.3042 131.466 67.7003 131.466 67.8976 131.204L77.6389 118.306C77.8836 117.982 77.6511 117.517 77.2443 117.517H77.2428Z" />
<path class="st0" d="M71.635 129.503L85.1337 121.747C85.4656 121.557 85.4625 121.079 85.1291 120.892L79.7615 117.88C79.5459 117.758 79.2721 117.816 79.1238 118.012L70.9912 128.778C70.6686 129.206 71.1671 129.767 71.6335 129.5L71.635 129.503Z" />
<path class="st0" d="M85.4518 103.849L80.0643 116.392C79.9649 116.623 80.0566 116.891 80.2753 117.014L85.6629 120.037C85.9932 120.223 86.4 119.985 86.4 119.608V104.043C86.4 103.507 85.6629 103.356 85.4503 103.849H85.4518Z" />
<path class="st0" d="M68.4466 96.371L82.0569 97.9002C82.5891 97.9595 82.823 97.252 82.3597 96.9857L68.7494 89.1665C68.419 88.9778 68.0077 89.2136 68.0077 89.5925V95.8811C68.0077 96.1321 68.1973 96.3421 68.4466 96.3695V96.371Z" />
<path class="st0" d="M66.2536 89.168L52.6433 96.9872C52.1784 97.2535 52.4139 97.9626 52.9461 97.9017L66.5564 96.3725C66.8057 96.3451 66.9953 96.1337 66.9953 95.8841V89.5956C66.9953 89.2167 66.5839 88.9809 66.2536 89.1695V89.168Z" />
<path class="st0" d="M49.8677 121.749L63.3664 129.503C63.8328 129.77 64.3329 129.209 64.0087 128.781L55.8777 118.015C55.7293 117.817 55.4556 117.761 55.24 117.883L49.8723 120.895C49.5389 121.082 49.5359 121.559 49.8677 121.75V121.749Z" />
<path class="st0" d="M49.3386 120.037L54.7261 117.014C54.9464 116.891 55.0366 116.623 54.9372 116.392L49.5496 103.849C49.3386 103.358 48.6 103.507 48.6 104.043V119.608C48.6 119.984 49.0083 120.221 49.3371 120.037H49.3386Z" />
<path class="st0" d="M77.9417 115.772L67.9297 98.5179C67.7401 98.1893 67.2629 98.1893 67.0733 98.5179L57.0613 115.772C56.8717 116.101 57.1087 116.51 57.4895 116.51H77.5135C77.8943 116.51 78.1313 116.101 77.9417 115.772ZM64.44 112.472H66.9571C67.0152 112.472 67.0626 112.519 67.0626 112.577V113.513C67.0626 113.571 67.0152 113.618 66.9571 113.618H62.38C62.3219 113.618 62.2745 113.571 62.2745 113.513V112.449C62.2745 112.414 62.2929 112.381 62.3219 112.361L64.2304 111.098C64.8131 110.712 65.2092 110.366 65.4064 110.071C65.6007 109.782 65.6985 109.514 65.6985 109.278C65.6985 108.992 65.6068 108.758 65.4156 108.563C65.226 108.37 64.9859 108.276 64.6816 108.276C64.0439 108.276 63.6738 108.639 63.5515 109.385C63.5423 109.446 63.4842 109.487 63.423 109.473L62.3709 109.23C62.3158 109.217 62.2791 109.163 62.2898 109.108C62.3892 108.578 62.64 108.117 63.0392 107.735C63.4658 107.328 64.0301 107.121 64.7167 107.121C65.4034 107.121 66.0044 107.326 66.4326 107.731C66.8607 108.137 67.0794 108.659 67.0794 109.283C67.0794 109.834 66.8868 110.333 66.5075 110.766C66.1879 111.132 65.4905 111.626 64.3849 112.274C64.2916 112.329 64.3298 112.471 64.4369 112.471L64.44 112.472ZM72.4807 112.044C72.3079 112.527 72.0296 112.93 71.6519 113.24C71.2711 113.555 70.7879 113.715 70.2159 113.715C69.4222 113.715 68.8014 113.405 68.3701 112.79C67.9465 112.186 67.7309 111.41 67.7309 110.485C67.7309 109.485 67.9557 108.668 68.4007 108.057C68.8518 107.436 69.4666 107.122 70.2251 107.122C70.771 107.122 71.2405 107.27 71.6198 107.562C71.9975 107.853 72.2819 108.26 72.4654 108.775C72.6474 109.281 72.7392 109.765 72.7392 110.211C72.7392 110.95 72.652 111.567 72.4823 112.044H72.4807Z" />
<path class="st0" d="M70.2343 108.131C69.4467 108.131 69.0476 108.89 69.0476 110.388C69.0476 111.081 69.1363 111.646 69.3121 112.064C69.4788 112.464 69.7724 112.658 70.2113 112.658C70.508 112.658 70.7389 112.571 70.9194 112.391C71.1014 112.21 71.2283 111.95 71.294 111.62C71.3629 111.278 71.398 110.795 71.398 110.187C71.398 109.689 71.3124 109.21 71.1442 108.763C70.9836 108.338 70.6869 108.131 70.2343 108.131Z" />
<path class="st0" d="M112.315 31.4943C113.025 31.1779 114.719 31.0469 114.719 31.0469C114.719 31.0469 114.032 30.951 113.277 31.0149C112.772 31.0581 112.234 31.2802 111.857 31.2498C111.993 31.0005 113.277 28.6181 113.277 28.6181C113.277 28.6181 112.315 30.216 110.072 31.9737C108.992 32.8189 108.405 32.4147 109.199 31.6589C110.713 30.216 110.322 27.2902 111.705 25.499C111.705 25.499 110.713 26.5408 110.072 28.4583C109.431 30.3758 109.431 30.6953 107.989 31.8139C106.547 32.9324 101.858 33.2168 96.7284 33.6962C97.895 31.1779 96.2157 26.846 98.8244 25.1842C101.433 23.5223 104.944 22.7042 108.309 23.5032C105.265 21.9053 102.172 22.8864 99.7955 23.5032C100.371 21.8797 100.416 20.1188 100.792 18.4522C101.206 18.155 102.331 17.217 102.534 15.5728C102.749 13.8439 101.783 12.6183 101.462 12.2619C101.414 12.2076 101.334 12.1964 101.271 12.2332C100.868 12.4777 99.5552 13.3948 99.3436 15.135C99.1273 16.9086 100.228 18.1262 100.569 18.4586C99.7282 20.3761 99.56 22.6771 97.5986 24.3692C95.3295 26.3267 95.8183 29.4458 95.2959 32.2661C94.7751 35.0896 90.6263 34.2762 88.3477 35.3261C89.6569 32.4115 87.3574 28.9712 88.9213 26.2196C90.4837 23.468 92.4467 22.0651 93.2479 19.9878C93.4851 19.3726 93.5268 19.1505 93.5684 18.0703C93.6101 16.9901 92.7672 15.6735 92.7672 15.6735C93.3697 18.2732 92.5653 20.6333 90.035 22.1258C87.1586 23.8228 87.0353 25.3168 86.1972 27.4979C84.1236 25.7306 82.0308 22.5444 84.2422 20.4272C84.9761 19.7241 86.0594 18.3116 86.9984 17.5909C89.1569 15.9339 91.2096 15.1445 91.2096 15.1445C91.2096 15.1445 89.0063 15.6846 86.8382 16.9518C85.1508 17.9377 83.683 19.7002 82.01 19.8328C82.0308 18.8693 81.8706 17.7507 82.9923 14.8745C83.9361 12.4521 84.7678 10.9405 85.7725 10.2358C85.795 10.263 85.8206 10.2869 85.8543 10.3013C87.0401 10.7919 88.4118 10.5873 89.4021 9.76122C90.3828 8.94149 90.8266 7.6424 90.5606 6.39923C90.5414 6.30495 90.4581 6.23784 90.3619 6.23145C89.7851 6.1979 87.9214 6.21387 86.6779 7.68235C86.0065 8.4765 85.8046 9.35215 85.7437 9.88905C85.2069 10.0648 84.7454 10.3684 84.4649 10.8606C84.5803 10.0488 84.7822 9.26267 84.9313 8.48449C84.9441 8.4797 84.9569 8.47491 84.9697 8.46692C85.7148 7.99234 86.069 7.44426 86.2373 7.11989C86.9952 5.65461 86.5834 3.65084 85.2037 2.03057C85.1524 1.96985 85.0627 1.95547 84.9954 1.99541C83.6878 2.77998 82.9314 4.20371 83.0644 5.64822C83.207 7.19978 84.3127 8.12337 84.7342 8.42377C84.4105 9.11886 84.0756 10.0744 83.9554 11.0363C83.7951 12.3147 82.8337 13.7528 82.1927 15.3507C81.5485 16.955 79.2586 23.9746 83.1878 27.6274C87.1186 31.2786 86.0546 37.8475 81.1944 39.8082C81.9796 37.3298 79.5695 35.2909 78.0263 34.2059C76.4832 33.1225 76.0826 31.0421 76.0826 31.0421C75.8518 33.5172 76.9046 34.5255 78.8276 36.1234C80.3066 37.3522 79.9204 39.9712 78.9958 41.4892C78.0696 43.0056 75.7477 43.4578 74.0891 44.1401C72.4306 44.8208 71.7784 47.9335 71.7896 49.3892C71.099 47.1441 70.0397 44.7425 70.3586 42.2546C70.6775 39.765 69.7305 36.2289 70.1599 33.9023C70.5878 31.5742 71.7448 30.0466 73.0091 28.3864C74.2766 26.7245 78.9862 24.2989 78.9862 24.2989C78.9862 24.2989 75.9415 25.0979 74.9801 25.737L73.0572 27.0154C73.0572 27.0154 73.3776 25.737 73.5379 24.6185C73.6981 23.5 73.5379 21.2629 73.5379 21.2629C73.5379 21.2629 73.1966 24.1216 72.2559 26.3762C71.5268 28.1227 70.333 29.2492 69.3347 30.0226C68.6008 28.2489 68.6825 25.8249 68.7241 23.909C68.7658 21.99 71.3281 19.7785 71.3281 19.7785C71.3281 19.7785 71.7752 19.665 72.5764 17.9073C73.3776 16.1496 73.5379 15.0311 74.0362 12.2859C74.2558 11.0747 74.9849 8.94309 74.9993 7.54493C74.8198 7.87569 74.3391 9.75802 74.0186 10.557L72.5764 15.5105C70.974 19.9846 69.176 19.6267 68.5703 21.4227C68.6953 18.7031 68.8523 15.7869 68.104 13.3102C67.6585 11.8385 67.3605 10.966 67.7691 9.11886C67.8524 8.74335 67.6008 7.81178 67.2851 6.86901C67.4871 6.63572 67.7226 6.32253 67.9293 5.92306C68.0928 5.60667 68.6793 4.38907 68.4101 2.88704C68.1312 1.32909 67.0047 -0.140982 66.4871 0.0108186C66.25 0.0795284 66.2836 0.445448 66.0064 1.44893C65.5321 3.16987 65.069 3.43193 65.0449 4.16536C65.0241 4.80932 65.3494 5.76646 67.064 6.99525C67.1874 7.66956 67.2419 8.33269 67.1281 8.79928C66.7916 10.1767 66.3445 13.7927 66.4727 15.5488C65.8365 14.4527 63.9681 13.3773 63.3848 13.3245C62.8015 13.2718 61.3593 13.2734 61.3593 13.2734C61.3593 13.2734 62.09 13.7927 63.122 13.9126C64.154 14.0324 64.8382 15.1142 65.3654 15.6703C66.7644 17.1435 66.516 17.086 66.6778 19.0147C66.8397 20.9433 66.1683 22.3703 65.9279 24.1791C65.6859 25.9879 65.7596 27.9725 65.6555 29.8197C64.4376 29.2045 62.7903 27.6098 62.0259 26.5072C61.5115 25.7642 61.0388 25.0084 61.0388 24.3005C61.0388 23.9937 61.0869 23.5911 61.1446 23.214C61.6462 22.9455 62.9794 22.0858 63.2983 20.3777C63.6011 18.7574 62.7759 17.5302 62.4778 17.1467C62.4281 17.0844 62.3416 17.062 62.2695 17.0956C60.7424 17.7987 59.7713 19.2288 59.8017 20.726C59.8258 21.9037 60.4603 22.7554 60.8065 23.1389C60.6751 23.4648 60.5693 23.8212 60.5597 24.1407C60.5389 24.7671 60.3578 25.6971 60.1655 25.6827C59.6191 25.6396 58.8355 25.336 58.4765 24.9397C58.0887 24.5115 58.0791 24.3932 57.6753 23.9809C57.592 23.8963 57.2314 23.2747 57.1946 23.182C57.068 24.2861 58.523 25.8888 60.079 26.8572C62.1061 28.1195 62.489 30.5867 63.4553 32.6272C64.42 34.6677 64.678 38.2726 63.8175 40.6247C62.9569 42.9768 64.2934 45.1436 65.4536 47.1489C63.7502 46.4235 62.2984 44.5827 60.5613 43.9547C58.8243 43.3268 56.9959 42.7771 55.9142 41.2383C55.2877 39.626 53.6708 38.3621 54.9528 35.8054C55.8357 34.0445 60.4011 33.8879 60.4011 33.8879C60.4011 33.8879 55.8998 33.244 54.4656 34.7636C53.0298 36.2848 53.4176 38.255 53.392 39.8098C51.719 39.2633 50.272 37.9961 49.5734 36.2784C48.8763 34.5623 48.9356 31.9864 49.7592 30.2751C50.5813 28.5621 51.562 27.6801 52.7173 26.087C53.8711 24.4971 53.7205 23.0366 53.9913 20.7851C54.2108 18.9635 52.7943 16.8207 52.1196 15.1877C51.5315 13.772 51.2751 12.818 52.3231 11.6915C52.3328 11.6947 52.3424 11.7011 52.3536 11.7027C53.4673 11.9072 54.5938 11.5365 55.2732 10.7184C56.1482 9.66374 56.1466 8.0211 55.1979 6.82587C55.1482 6.76355 55.0617 6.74598 54.9896 6.77793C54.5105 7.00004 53.3888 7.62163 52.7093 8.95907C52.1853 9.99132 52.1709 10.9596 52.211 11.4806C51.8376 11.7554 51.4514 12.0942 51.1069 12.794C50.8809 12.3594 50.8858 10.827 50.9547 9.63019C52.5924 8.36625 53.3423 6.5031 52.8696 4.96432C52.6276 4.18134 52.118 3.63806 51.711 3.3041C51.6421 3.24657 51.5396 3.25296 51.4771 3.31688C49.7737 5.0506 49.1102 7.15983 49.8249 8.63949C49.966 8.93191 50.2127 9.30741 50.671 9.67014C50.5572 10.2102 50.4659 10.8526 50.4659 11.5157C50.4659 12.6342 50.7015 13.9269 51.2671 15.3507C51.836 16.7744 52.3263 18.2573 52.3696 19.8296C50.8521 19.5052 49.9371 17.9377 48.2225 17.1084C47.7161 16.8639 47.2995 16.6721 46.9534 16.5219C46.9982 15.8348 46.1682 15.1781 45.9791 15.0311C44.5257 13.887 42.5098 14.3152 41.8095 14.507C41.7214 14.531 41.6669 14.622 41.6877 14.7099C42.0739 16.3558 43.1267 17.5542 44.3766 17.7475C45.2436 17.8818 46.3701 17.559 46.7883 16.9662C47.0543 17.1403 47.3684 17.3465 47.7418 17.5877C48.8314 18.2956 49.6006 19.3886 50.7864 20.464C52.5491 22.0619 50.953 26.2548 48.4853 27.7808C48.2722 25.5581 46.7899 24.7671 44.0561 22.3814C42.7742 21.2629 41.4233 19.2815 41.1253 16.9757C40.8512 17.9968 41.7422 19.1393 41.364 20.2371C41.3448 20.2946 41.0644 20.13 40.7551 19.9415C40.6942 19.4605 40.409 18.0543 39.0886 17.1451C37.6143 16.1305 36.0087 16.5299 35.5456 16.6785C35.4718 16.7025 35.4238 16.7728 35.427 16.8511C35.451 17.3273 35.6433 18.9396 37.1224 19.8871C38.563 20.8107 40.0709 20.3649 40.5868 20.1652C42.4938 21.8957 45.0721 23.7684 46.3893 26.0007C47.878 28.5158 45.5064 32.1798 45.8284 34.917C44.0962 34.4872 40.1334 35.398 39.6815 33.097C39.228 30.796 39.4123 28.2058 38.6287 26.1956C37.8435 24.1871 35.9414 24.1423 35.5648 22.0635C35.467 21.525 35.0536 20.611 34.7636 19.5068C34.5344 18.636 34.3341 17.3656 34.1899 16.2551C34.2011 16.2503 34.2123 16.2455 34.2219 16.2375C34.5793 15.9659 35.6065 15.0694 35.725 13.593C35.834 12.2316 35.1273 10.8989 33.9095 10.1415C33.847 10.1016 33.762 10.108 33.706 10.1575C32.6467 11.0651 32.1259 12.4313 32.3599 13.7528C32.6019 15.119 33.5569 15.9163 33.9656 16.204C34.0184 17.4375 34.1018 18.7654 34.1226 18.8661L34.4431 20.464C34.5569 21.0296 34.6498 21.6177 34.9927 23.0909C32.5666 22.6467 29.695 21.7663 27.6327 23.7029C30.3328 23.361 33.5185 23.3354 35.9991 25.1458C38.4764 26.9562 37.1256 31.0437 38.0598 33.6914C34.552 33.1018 30.8152 33.2728 27.4452 32.2485C26.1761 31.8634 25.4406 30.2607 24.9887 29.2524C24.2403 27.581 23.3862 27.0154 23.3862 27.0154C23.3862 27.0154 23.9823 27.5618 24.8284 29.7318C25.1762 30.6234 25.2739 31.2051 25.5896 31.857C24.7515 31.7995 24.1266 31.9065 23.0353 31.0581C22.4023 30.5659 21.9665 29.6998 21.686 29.0671C21.6876 29.0623 21.6924 29.0575 21.694 29.0527C21.8735 28.503 22.1668 27.2551 21.6235 25.8952C20.8207 23.8851 18.8257 23.2315 18.1543 23.0654C18.0261 23.0334 17.8963 23.1005 17.8434 23.2219C17.2232 24.6409 17.3739 26.2691 18.2584 27.4931C19.2567 28.8721 20.7726 29.1677 21.3816 29.2333C21.8367 30.0706 22.4953 31.1395 22.1043 31.0085C21.2598 30.7273 19.8881 30.5004 19.1622 30.2943C19.1606 30.2591 19.1526 30.224 19.1366 30.192C18.8802 29.6887 18.0469 28.332 16.3355 27.9725C14.991 27.6897 13.5873 28.1275 12.6194 29.1134C12.5409 29.1933 12.5233 29.3195 12.5761 29.4186C13.2828 30.7161 14.5808 31.5678 16.015 31.6477C17.5485 31.7324 18.6414 30.9015 19.058 30.5244C19.058 30.5244 19.058 30.5276 19.0596 30.5292C19.9922 30.7433 21.3351 31.1555 22.4248 31.6477C23.9455 32.3332 25.1329 33.0634 26.2017 33.4869C24.3701 34.2347 22.3238 34.6869 20.8864 36.1378C24.141 34.3721 28.1599 33.8831 31.7173 34.7141C35.2732 35.5482 38.9139 36.8441 42.3079 37.6095C45.7018 38.3733 48.6359 40.548 50.3073 43.4722C51.2832 45.1835 53.4304 47.0563 55.1146 47.9463C56.3741 47.9271 57.3212 47.5724 59.1207 48.2659C60.6366 48.8491 62.614 49.6113 63.6075 51.4617C64.3639 52.871 63.6764 53.2833 64.2485 56.4152C64.5033 57.8149 64.8446 59.5918 66.0112 61.5285C66.6025 62.5096 67.5015 64.002 68.5751 64.5645C68.7626 64.6619 69.6744 65.1094 70.6503 65.9946C70.6503 65.9946 70.6551 65.9994 70.6583 66.0026C72.0284 67.2489 73.0604 70.6301 73.062 70.6365C73.3696 71.6432 73.8359 73.1037 74.5042 74.9508C73.6709 73.2315 73.1052 71.7918 72.7415 70.7963C71.8281 68.294 71.6774 67.1627 70.498 66.1624C69.6552 65.4481 69.3779 65.7245 68.2546 64.884C66.9246 63.8886 66.2548 62.7061 65.6907 61.6882C65.4231 61.2057 64.428 59.3441 63.928 56.4152C63.4152 53.4143 64.0482 52.9557 63.2871 51.6215C62.0548 49.4595 59.3723 48.7101 58.8002 48.5854C58.5326 48.5263 57.6977 48.2978 57.0375 48.2659C56.3773 48.2339 55.5953 48.2659 55.5953 48.2659C58.0294 50.145 60.6959 53.1602 61.8208 56.07C63.0211 59.1731 63.9777 62.7173 65.061 65.8859C66.1458 69.0514 67.1586 72.5827 68.0495 75.7482C68.9437 78.912 71.3618 81.2034 72.9578 83.9007C74.2622 86.1106 76.3181 88.1191 77.0456 90.4169L78.8644 91.4636C78.6897 89.5461 78.1545 87.6781 77.2652 86.3311C75.4352 83.5603 73.3023 82.2165 71.7928 79.3531C73.5299 80.9717 74.9048 83.4421 76.9046 85.0608C76.7492 83.832 76.1723 82.3475 76.6995 81.1874C76.8133 81.6253 76.3982 82.6431 77.1081 82.6144C79.5486 77.0569 77.9526 70.1316 75.2525 65.0982C72.554 60.0632 70.857 55.2183 68.3171 50.1993C71.0717 52.8982 71.9338 56.7539 73.8375 59.9849C75.8742 55.3286 70.9083 48.1412 76.2909 45.1036C75.4288 46.7239 74.1917 47.7481 74.2462 49.7919C74.3006 51.8356 74.5795 53.8697 74.6548 55.907C77.9815 54.3011 76.2492 50.7969 76.903 47.9559C77.3837 49.2646 76.8742 51.1581 77.5168 52.4412C78.6337 50.5573 80.4124 49.076 81.8257 47.3615C83.2407 45.6485 84.1589 43.4897 85.7453 41.8918C87.3317 40.2939 88.7451 38.589 91.0734 38.0313C93.4018 37.472 96.323 37.4337 98.5296 36.0883C100.736 34.7412 103.68 35.2094 106.14 34.2986C108.599 33.3878 111.453 35.6584 113.703 35.9301C112.391 34.6933 110.367 34.3338 109.002 33.2791C110.245 32.9564 111.16 32.0008 112.322 31.4847L112.315 31.4943ZM64.9888 30.7385C65.2725 31.2834 65.7676 32.0759 66.6041 32.787C67.6313 33.6594 68.3444 33.7058 68.9405 34.476C69.3203 34.9681 69.7032 35.8198 69.5206 37.3682C69.5815 35.8853 69.16 35.0624 68.7674 34.5862C68.1296 33.8112 67.4262 33.7777 66.4951 32.9452C65.6651 32.2038 65.2276 31.3409 64.9905 30.7417L64.9888 30.7385ZM76.6931 75.8968C75.1964 73.9649 74.134 71.5233 73.4225 69.1696C74.791 71.1782 75.706 73.6262 76.6931 75.8968ZM71.4531 58.9782C72.3537 60.2214 72.9882 61.3079 73.376 62.0142C72.8889 61.3591 72.1197 60.346 71.1326 59.138C69.1232 56.6772 68.5238 56.2362 67.2868 54.6639C65.0481 51.8164 65.6939 51.5815 63.7614 49.231C62.2871 47.4382 60.8561 45.698 58.4733 44.9167C56.6882 44.3318 56.0777 44.8464 53.9865 44.2775C51.8729 43.7023 50.3249 42.5869 49.3394 41.7209C50.3441 42.4591 51.9065 43.421 53.9865 43.9579C56.1482 44.5156 56.7186 44.0634 58.4733 44.5971C61.1766 45.4216 62.84 47.4206 64.0819 48.9114C66.1042 51.3402 65.327 51.6886 67.6072 54.5041C69.027 56.257 69.8859 56.813 71.4531 58.9782ZM68.4069 44.8543C67.4406 42.7371 66.774 42.1203 66.3061 40.7429C65.899 39.5461 65.6186 37.7085 66.4006 35.0688C65.8205 37.6063 66.1442 39.4039 66.5737 40.6023C67.0961 42.0628 67.7963 42.686 68.628 44.6658C69.309 46.2861 69.6167 47.7194 69.7721 48.6989C69.5398 47.7977 69.1296 46.4315 68.4085 44.8528L68.4069 44.8543ZM56.8709 6.7268C56.5472 5.42132 57.3099 3.87934 58.8243 2.96694C58.8996 2.9222 58.9957 2.94137 59.0502 3.01008C59.3162 3.35523 59.6543 3.9113 59.7553 4.64953C60.0101 6.51108 58.5278 7.88528 58.1015 8.23842C58.0375 8.29115 57.9477 8.29115 57.8836 8.23842C57.5439 7.96198 57.0536 7.46343 56.8709 6.7252V6.7268ZM59.1463 9.09649C60.393 9.90663 61.1109 11.2521 60.9892 12.6007C60.8914 13.6793 60.2857 14.4255 59.9668 14.7563C59.9059 14.8186 59.8098 14.8282 59.7393 14.7754C59.3595 14.4894 58.531 13.7576 58.2233 12.516C57.8211 10.8893 58.6095 9.57426 58.9124 9.14283C58.9653 9.06773 59.0678 9.04696 59.1447 9.09649H59.1463ZM26.7658 22.8944C26.894 23.3178 27.1712 24.5897 26.3315 25.7147C25.5736 26.7293 24.4438 26.9051 24.0352 26.9355C23.9535 26.9419 23.8798 26.8891 23.8573 26.8108C23.7516 26.4273 23.5801 25.5181 24.0336 24.5706C24.6858 23.2092 26.1072 22.856 26.5735 22.7745C26.66 22.7602 26.7417 22.8113 26.7674 22.8944H26.7658ZM68.8684 12.81C68.8091 12.3163 68.7546 11.1003 69.5302 9.92261C70.4964 8.45413 72.0508 8.10579 72.5812 8.0243C72.6726 8.00992 72.7607 8.06265 72.7927 8.15053C72.9626 8.62351 73.3873 10.1463 72.4146 11.5205C71.6582 12.5895 70.3522 13.1488 69.035 12.981C68.9469 12.9698 68.878 12.8995 68.8684 12.8116V12.81ZM62.7999 9.92261C62.0628 8.75134 62.0404 7.2589 62.7294 6.04769C62.7695 5.97579 62.8576 5.94543 62.9361 5.97259C63.4906 6.16274 65.2645 6.89938 66.0048 8.80407C66.4423 9.9274 66.3221 10.9485 66.2083 11.4917C66.3237 11.9344 66.399 12.3802 66.4022 12.8148C66.2948 12.4233 66.1346 12.0462 65.9423 11.6803C64.6652 11.6563 63.4777 10.9996 62.7999 9.92261ZM46.4278 10.0776C45.5112 9.03737 45.3189 7.49539 45.9422 6.16913C45.9743 6.10202 46.0464 6.06207 46.1201 6.07166C47.6055 6.25382 48.8699 7.14865 49.4115 8.43816C49.8426 9.46401 49.6855 10.4291 49.5461 10.9405C49.6503 11.1546 49.7528 11.3719 49.8329 11.5988C49.9724 11.9743 50.0861 12.3562 50.1711 12.7413C50.0172 12.377 49.841 12.0254 49.6423 11.6883C49.5541 11.5317 49.4516 11.3815 49.3458 11.2329C49.3426 11.2329 49.341 11.2329 49.3378 11.2345C48.8939 11.2553 47.4421 11.2265 46.4278 10.076V10.0776ZM38.4428 15.1957C37.9685 14.0915 38.188 12.7733 38.9972 11.7826C39.0469 11.7218 39.135 11.7027 39.2055 11.7378C40.6029 12.4185 41.441 13.74 41.3272 15.0359C41.2487 15.9387 40.7311 16.5763 40.4458 16.8735C40.3978 16.923 40.3241 16.939 40.26 16.9134C39.8946 16.7664 38.9155 16.2934 38.4428 15.1957ZM27.027 12.4425C27.0494 12.3674 27.1199 12.3195 27.1968 12.3211C27.809 12.337 30.0973 12.5224 31.392 14.3967C31.8391 15.0423 32.0378 15.7038 32.1276 16.2215C32.1484 16.2727 32.1692 16.3238 32.1916 16.3749C32.4432 16.9518 32.7749 17.5126 33.3166 17.9105C32.7894 17.7044 32.3391 17.3241 31.9593 16.8959C30.6918 17.4088 29.2351 17.1931 28.1871 16.3158C27.0654 15.3778 26.6119 13.8502 27.027 12.4441V12.4425ZM26.2738 18.4938C26.2674 18.4298 26.2979 18.3675 26.3507 18.334C26.7193 18.0959 27.9259 17.4136 29.4691 17.7523C31.1004 18.1103 31.9192 19.3502 32.142 19.7385C32.174 19.7944 32.1724 19.8632 32.1372 19.9175C31.3888 21.0552 29.9899 21.6033 28.6679 21.2677C27.3699 20.9385 26.4116 19.8232 26.2738 18.4938ZM42.3207 10.3237C42.3047 10.2534 42.3479 10.1831 42.4184 10.1655C42.8767 10.052 44.4568 9.76441 45.6458 10.8174C46.2723 11.3735 46.5143 12.0574 46.612 12.4361C46.6281 12.5016 46.5928 12.5687 46.5287 12.5927C46.1618 12.7253 45.0529 13.0385 43.9087 12.4265C42.763 11.8129 42.4136 10.7136 42.3223 10.3237H42.3207ZM55.7492 31.4943C55.8261 30.4716 56.5392 29.5592 57.576 29.1358C57.6352 29.1118 57.7041 29.123 57.7522 29.1629C58.5919 29.874 58.8787 31.0245 58.4733 31.9737C58.1368 32.7598 57.3708 33.3047 56.4847 33.4038C56.4254 33.4102 56.3677 33.3846 56.3309 33.3383C56.1273 33.0746 55.6803 32.3955 55.7492 31.4959V31.4943ZM57.5119 16.9534C56.9189 17.8993 55.5521 18.5113 54.9479 18.0719C54.2974 17.5973 54.7653 16.0665 54.7877 15.9946C55.2348 14.5821 56.5328 13.8902 57.0584 13.6553C57.1353 13.6202 57.2266 13.6473 57.2731 13.7176C57.9734 14.7946 58.0775 16.0522 57.5135 16.9534H57.5119ZM74.1452 15.0071C74.2045 14.3855 74.4176 13.2047 75.2733 12.0414C76.246 10.7168 77.5055 10.1591 78.1048 9.94498C78.193 9.91462 78.2875 9.96255 78.3084 10.0536C78.4334 10.5666 78.5599 11.4582 78.2026 12.4169C77.6449 13.9142 76.1354 14.972 74.3167 15.1797C74.2173 15.1909 74.1356 15.1062 74.1452 15.0071ZM69.8747 6.88659C69.7385 6.63892 69.0943 5.41333 69.3555 3.85058C69.5943 2.42365 70.4948 1.26038 71.6903 0.814563C71.8153 0.948787 72.8376 2.0801 72.727 3.69079C72.6181 5.28709 71.4419 6.69804 69.8747 6.88659ZM78.6993 18.1646C78.8756 18.6503 79.4653 20.5822 78.3436 22.3862C77.6049 23.5751 76.5104 24.0848 76.0297 24.2702C75.9816 24.2893 75.9287 24.2622 75.9159 24.211C75.7877 23.6757 75.5297 22.2201 76.2588 20.6285C76.9415 19.1409 78.0936 18.3915 78.576 18.1198C78.6224 18.0943 78.6785 18.1151 78.6977 18.1646H78.6993ZM118.227 38.4931C119.102 39.3256 119.427 40.5879 119.046 41.7209C118.692 42.7723 117.783 43.5521 116.685 43.7662C116.562 43.7901 116.434 43.7454 116.36 43.6447C116.078 43.2676 115.488 42.3105 115.681 41.0817C115.868 39.8881 116.724 38.8782 117.903 38.4292C118.014 38.3876 118.142 38.4116 118.227 38.4931ZM119.526 27.9789C121.236 27.8063 122.46 28.7235 122.896 29.1102C122.991 29.1949 123.012 29.3339 122.946 29.441C122.63 29.9427 121.653 31.2466 119.848 31.4943C118.051 31.742 116.759 30.7608 116.317 30.3646C116.222 30.2799 116.205 30.1393 116.273 30.0338C116.607 29.5225 117.655 28.1691 119.528 27.9789H119.526ZM113.846 28.4647C113.647 28.0013 113.187 26.6399 113.918 25.2625C114.535 24.0992 115.77 23.3658 117.123 23.3434C117.22 23.3434 117.313 23.3993 117.357 23.4872C117.978 24.7719 117.826 26.2803 116.964 27.3397C116.006 28.5158 114.589 28.6245 114.089 28.6229C113.984 28.6229 113.889 28.5605 113.849 28.4631L113.846 28.4647ZM124.814 45.396C126.523 45.3433 127.72 46.2621 128.172 46.6728C128.274 46.7654 128.289 46.9188 128.21 47.0323C127.51 48.0294 126.356 48.6206 125.135 48.5918C123.847 48.5615 122.67 47.844 122.039 46.7239C121.972 46.604 121.999 46.4554 122.108 46.3724C122.552 46.0336 123.499 45.4376 124.814 45.396ZM108.45 22.4278C108.391 22.0011 108.309 20.8011 109.111 19.6698C109.977 18.4442 111.272 18.155 111.713 18.0879C111.785 18.0767 111.852 18.1182 111.875 18.1854C112.005 18.588 112.33 19.8935 111.514 21.1063C110.872 22.0635 109.756 22.6083 108.588 22.5524C108.518 22.5492 108.462 22.4965 108.452 22.4262L108.45 22.4278ZM129.127 51.8356C129.224 51.8947 129.252 52.0241 129.186 52.1184C128.747 52.748 127.721 53.9943 125.936 54.6639C123.587 55.5459 121.478 54.8444 120.643 54.4881C120.517 54.5792 120.39 54.6703 120.265 54.7629C119.674 55.2056 119.113 55.6961 118.708 56.3337C118.986 55.6322 119.469 55.0122 119.981 54.4529C120.214 54.1989 120.453 53.9528 120.688 53.7099C121.195 52.9333 122.233 51.703 124.013 51.1485C126.451 50.3879 128.492 51.4473 129.127 51.8356ZM119.525 48.2818C119.523 48.1796 119.586 48.0869 119.682 48.0533C120.089 47.9143 121.175 47.6443 122.251 48.2723C123.222 48.8395 123.552 49.7695 123.654 50.1738C123.68 50.276 123.638 50.3847 123.545 50.4358C122.443 51.043 121.14 50.9296 120.328 50.1897C119.627 49.5522 119.531 48.6669 119.525 48.2818ZM121.287 34.8419C120.869 35.2142 119.842 35.986 118.405 35.9684C116.906 35.9492 115.511 35.0784 114.721 33.7106C114.679 33.7106 114.639 33.709 114.597 33.7074C113.769 33.6994 112.939 33.7377 112.123 33.9327C112.894 33.6035 113.732 33.4198 114.565 33.2871C114.625 33.2775 114.682 33.2696 114.742 33.2616C115.192 32.9116 116.145 32.3012 117.443 32.2916C119.592 32.2773 120.93 33.9295 121.328 34.5015C121.403 34.6086 121.385 34.754 121.287 34.8419ZM80.4268 30.216C81.0101 30.8759 81.196 31.7947 80.9075 32.6128C80.595 33.4981 79.7778 34.126 78.8243 34.2107C78.7218 34.0413 78.2282 33.1849 78.5039 32.1334C78.882 30.6937 80.3467 30.2399 80.4268 30.216ZM89.2402 10.402C90.801 9.39849 92.4451 9.74204 92.9547 9.88266C93.0316 9.90343 93.0781 9.98013 93.0637 10.0568C92.9707 10.5474 92.5621 12.0942 91.0029 12.957C90.8363 13.0497 89.3941 13.8151 87.7115 13.267C87.1426 13.8423 86.6074 14.4798 86.1187 15.1781C86.5129 14.2321 86.9824 13.3325 87.5208 12.492C87.766 11.8928 88.2627 11.0268 89.2386 10.3988L89.2402 10.402ZM79.9461 8.96386C79.805 8.16012 80.015 7.46823 80.196 7.04319C80.2313 6.96009 80.3338 6.93133 80.4076 6.98406C80.9941 7.39472 82.0469 8.27357 82.6702 9.76441C82.9971 10.5474 83.1093 11.2664 83.1413 11.8065C83.1477 11.904 83.0564 11.9791 82.9618 11.9519C81.3658 11.5045 80.1864 10.3492 79.9461 8.96546V8.96386ZM76.5809 6.40722C76.0457 4.45778 77.4222 2.86787 77.5424 2.73205C78.7346 3.12034 79.5663 4.20531 79.6256 5.44848C79.6833 6.67088 78.983 7.81338 77.8629 8.3247C77.552 8.07383 76.8662 7.44586 76.5809 6.40722ZM102.853 17.9712C102.823 17.4967 102.819 16.1033 103.822 14.8761C105.119 13.291 107.063 13.2542 107.563 13.2718C107.627 13.2734 107.68 13.3181 107.694 13.3805C107.8 13.8263 108.104 15.5648 106.865 16.9534C105.902 18.032 104.385 18.4746 102.957 18.0991C102.898 18.0831 102.856 18.032 102.851 17.9712H102.853ZM107.284 19.9415C107.321 19.9686 107.33 20.0182 107.305 20.0565C107.047 20.4544 106.154 21.6896 104.624 21.9069C103.601 22.0523 102.21 21.7551 102.06 21.1079C101.901 20.4288 103.127 19.4477 104.303 19.1904C105.739 18.8772 106.936 19.681 107.284 19.9415ZM97.1419 16.5699C97.206 16.514 97.3005 16.5187 97.3598 16.5779C97.7252 16.9534 98.7331 18.1326 98.536 19.6682C98.3533 21.0824 97.1964 22.4486 96.3983 22.399C96.4096 22.4933 96.4208 22.5876 96.4352 22.6819C96.5217 23.2267 96.674 23.7684 96.9624 24.2638C96.5618 23.8547 96.2605 23.3386 96.0298 22.8001C95.8663 22.4182 95.7349 22.0235 95.6131 21.6304C95.4353 21.1942 95.3503 20.6669 95.3295 20.3058C95.2205 18.4171 96.6307 17.0189 97.1419 16.5667V16.5699ZM93.4066 12.639C93.4498 11.4406 94.2767 10.3572 95.4898 9.92261C96.6419 11.0427 96.9336 12.639 96.291 13.7576C96.0698 14.1427 95.7686 14.4175 95.4737 14.6124C95.0234 15.1222 94.4818 15.5808 93.8569 15.9723C94.1069 15.6623 94.3136 15.3363 94.4866 15.0007C94.2543 14.7994 93.3585 13.9413 93.4066 12.639ZM88.9358 28.8146C88.9967 28.674 89.064 28.5398 89.1361 28.4071C88.9486 27.7999 89.4469 26.8012 90.0414 26.2212C91.0894 25.1986 92.5781 25.344 92.9979 25.4079C93.0508 25.4159 93.0925 25.4574 93.0989 25.5101C93.147 25.8904 93.2399 27.2295 92.2849 28.1387C91.4676 28.9169 90.0959 29.1773 89.4582 28.805C89.4053 28.8721 89.3556 28.9408 89.3075 29.0127C88.9085 29.5656 88.7803 30.2927 88.7419 31.0133C88.6938 30.6554 88.6617 30.2911 88.681 29.9188C88.6986 29.5496 88.7803 29.1645 88.9358 28.813V28.8146ZM15.6785 73.9905C16.0567 74.4012 16.9845 75.6044 16.6496 77.1943C16.3803 78.471 15.4013 79.4985 14.1273 79.8596C14.0087 79.8931 13.8821 79.8452 13.8196 79.7381C13.5568 79.2843 13.0521 78.2169 13.2844 76.8747C13.5793 75.1777 14.8436 74.2509 15.3436 73.9442C15.4525 73.877 15.5919 73.8978 15.6769 73.9905H15.6785ZM29.2624 70.5966C29.2624 70.5966 29.2672 70.595 29.2752 70.5918C28.6551 71.0999 27.5398 72.2248 27.2257 73.9985C27.0126 75.1953 27.2513 76.1972 27.4532 76.7836C27.5029 76.9274 27.6615 77.0009 27.8026 76.9434C28.4147 76.7005 29.9178 75.9351 30.4306 74.1583C30.9193 72.4645 30.1533 71.0743 29.7928 70.5438C29.764 70.5007 29.7239 70.4703 29.6806 70.4511C30.0091 70.3361 30.4802 70.1683 30.9113 70.0037C31.6709 69.7129 33.4976 69.0482 34.8485 68.4186C36.6641 67.5733 39.9315 67.0572 42.1428 66.9262C44.3526 66.7951 48.1151 66.3573 50.3057 66.9405C52.4946 67.5254 54.5473 68.3052 56.044 69.78C53.7012 68.7398 50.7816 66.9677 47.7369 66.9677C49.8089 68.5145 52.4802 69.8008 54.1467 71.6016C56.1145 73.7268 57.7714 77.3796 59.6735 79.6167C61.5388 81.809 63.3383 84.1036 65.0145 86.4573L65.7724 86.0211C65.8285 85.9891 65.8846 85.9604 65.9423 85.93C65.0033 84.5414 63.9841 83.3478 62.9602 81.8266C61.8721 80.2111 60.4587 77.6385 60.9507 75.6907C61.3289 79.5927 64.1219 82.5936 66.5384 85.6919C67.4823 85.4091 68.5158 85.5162 69.3908 86.0211L71.022 86.9607C70.7801 86.6858 70.5397 86.411 70.3042 86.1409C69.2754 84.9585 68.1697 83.792 67.2419 82.4674C66.3141 81.1443 65.1379 80.1232 64.3751 78.5988C63.614 77.0712 62.3208 76.2308 61.7663 74.676C61.2119 73.1212 61.518 71.1239 61.1975 68.727C60.9811 67.1115 60.7167 66.1704 59.1143 64.0931C58.5438 63.3101 55.1082 61.856 55.1082 61.856C55.1082 61.856 57.1914 62.9746 58.3131 65.2116C59.4348 67.4487 59.2745 68.2476 59.2745 68.2476C59.2745 68.2476 57.8195 64.4862 55.9094 62.8148C53.134 60.386 49.4708 59.734 48.5253 59.5439C45.9166 59.0198 44.2917 56.8818 42.5002 54.9515C40.7086 53.0212 39.792 50.8657 37.4573 49.3796C35.1225 47.8936 33.0538 47.4701 30.8472 45.3689C30.6341 45.1659 30.461 44.9502 30.3216 44.7249C30.2847 44.6834 30.2527 44.6386 30.2174 44.5955C29.6053 43.9883 29.0829 43.2325 28.6278 42.5677C28.4195 42.2625 28.224 41.951 28.0397 41.6346C28.4516 41.4141 29.2175 40.9091 29.6293 39.9648C30.1614 38.7408 29.8921 37.2515 28.9531 36.1138C28.881 36.0259 28.756 35.9956 28.6519 36.0403C27.4869 36.5373 26.6841 37.619 26.5863 38.8462C26.4725 40.2764 27.3651 41.2623 27.7272 41.5994C27.7481 41.6186 27.7721 41.6346 27.7961 41.6458C28.0317 43.2357 28.849 44.8655 29.6726 46.1327C27.6503 46.2078 26.0479 46.2142 24.4086 45.0621C23.875 44.6882 23.5064 44.3095 23.2741 43.91C23.2901 43.902 23.3061 43.8924 23.3205 43.8796C24.2003 43.1638 24.6506 42.0436 24.5031 40.9219C24.3028 39.4023 23.101 38.6401 22.7036 38.4276C22.6283 38.3876 22.5369 38.3844 22.4616 38.4228C21.2005 39.0524 20.5291 40.433 20.8175 41.7225C21.0226 42.6333 21.6844 43.3875 22.5642 43.7598C23.1779 44.53 23.4615 45.4488 24.1826 46.0368C22.2773 46.7846 19.199 47.6491 17.0454 46.6983C16.1832 46.318 15.3692 45.8035 14.7186 45.1755C14.7491 45.1468 14.7731 45.1132 14.7875 45.0717C14.9686 44.538 15.1657 43.6527 14.8885 42.6812C14.4109 41.005 12.7204 39.7459 10.6051 39.5046C10.4818 39.4902 10.3664 39.5685 10.3247 39.6851C9.81835 41.0961 10.0876 42.6684 11.0426 43.7997C12.1611 45.1228 13.7331 45.2618 14.4077 45.2538C14.9462 45.9952 15.5407 46.7447 16.4909 47.3151C18.6158 48.5886 21.6524 48.2994 24.1538 48.1732C26.6552 48.047 29.6774 48.3745 31.7013 49.4132C33.7268 50.4502 35.3677 51.6806 36.5631 53.5373C37.7569 55.3925 38.4107 57.2796 40.151 58.7241C40.9362 59.3761 41.2326 60.0264 41.5195 60.6512C41.6156 60.6272 41.7134 60.6033 41.8095 60.5793C42.1156 61.0699 42.7582 61.9535 43.8927 62.6566C45.1474 63.4332 46.3508 63.5818 46.9373 63.6153C45.4487 63.577 44.3237 63.112 43.7324 62.8164C43.0803 62.492 42.5514 62.1117 42.1332 61.7458C42.3319 62.0046 42.5835 62.2555 42.9312 62.4968C41.4698 61.6355 40.6942 62.1852 38.9251 62.6566C37.0022 63.1359 34.9559 63.0209 33.2925 62.1005C31.626 61.1769 30.4466 60.3061 28.9066 59.3361C27.3651 58.3678 26.6616 56.8498 25.5687 55.5299C24.4743 54.2133 23.0738 53.2433 21.6187 52.2702C20.888 51.7813 19.5163 51.5735 18.3337 51.4872C17.7584 50.4949 16.6576 49.9197 15.5294 50.0331C14.2571 50.161 13.1995 51.1405 12.9655 52.43C13.1915 52.5722 14.8244 53.5661 16.6512 52.9094C17.4556 52.6202 17.9908 52.1216 18.2921 51.7765C19.0084 51.9506 19.8016 52.2079 20.497 52.5898C22.6042 53.7467 24.1266 55.8799 24.971 57.7558C22.4792 57.2557 20.3464 59.8379 18.1575 60.1351C17.2857 60.2533 15.6288 59.6845 14.7282 58.9814C13.3694 57.922 12.9094 56.5334 12.9094 56.5334C12.9094 56.5334 12.8614 57.5992 13.927 58.8216C14.584 59.5758 16.3195 60.4275 16.7938 61.0171C15.3163 62.4249 13.7988 61.9231 12.2685 61.3127C11.9896 60.7327 10.9641 60.3141 10.4737 60.167C9.39049 59.8427 8.41781 60.0808 7.8874 60.2693C7.76401 60.3125 7.6903 60.4403 7.71433 60.5697C7.94028 61.8544 8.8104 62.8116 9.83917 62.9778C10.9897 63.1647 12.339 62.3626 12.3438 61.6147C12.3438 61.6004 12.3406 61.5844 12.339 61.57C12.7396 61.8129 13.1675 62.0478 13.4479 62.1772C13.9639 62.4153 16.2425 63.2973 17.7697 62.8052C19.3993 62.2811 20.4169 60.7822 22.3142 60.6097C24.2099 60.4339 25.8812 60.4467 27.3747 61.8832C28.8666 63.3197 29.1118 63.9029 31.0587 64.9368C33.0057 65.9706 31.8151 66.8974 30.1309 67.7906C28.4467 68.6839 25.9069 68.6136 24.2964 68.0111C22.6876 67.4055 21.6892 66.2694 20.3384 65.3714C18.8962 64.4127 17.2857 64.1219 16.172 64.2529C13.4479 64.5725 11.8887 67.1323 11.8887 67.1323C11.8887 67.1323 15.523 64.6396 17.454 65.3714C19.3865 66.1033 20.3448 66.867 21.4969 68.3547C20.0724 68.882 18.8289 69.641 17.3562 70.138C15.8836 70.6349 15.2154 72.0746 13.5681 72.2728C12.339 72.4198 11.198 72.0474 9.94493 71.7998C9.40811 71.3236 8.0861 70.3681 6.25611 70.5438C4.54791 70.7084 3.47587 71.755 3.06404 72.2344C2.96629 72.3479 2.98232 72.5188 3.0993 72.6131C3.68419 73.0845 5.41002 74.2653 7.53165 73.7588C8.80399 73.4552 9.63246 72.685 10.0331 72.2344C10.0443 72.2232 10.0523 72.2088 10.0603 72.196C13.0569 73.4025 14.1481 73.428 17.1335 71.4434C20.0179 69.526 25.8412 70.9673 29.2656 70.5981L29.2624 70.5966ZM46.2948 59.7772C44.2388 58.7769 42.8815 57.7478 42.6091 57.5401C41.6445 56.8003 40.3561 55.6674 39.0838 54.0247C40.4234 55.5235 41.731 56.6165 42.7694 57.3803C44.4487 58.6155 45.9086 59.3521 46.455 59.6174C48.4516 60.5873 48.9292 60.4595 50.3009 61.2153C51.2511 61.7394 52.5395 62.6374 53.8262 64.2513C52.4369 62.7413 51.1037 61.8816 50.1406 61.3751C48.716 60.6256 48.2417 60.7247 46.2948 59.7772ZM30.5908 61.2153C32.0218 63.0161 33.4111 63.7543 34.4367 64.0915C35.5776 64.467 36.0503 64.2753 37.4813 64.8904C38.2409 65.2164 38.9043 65.6127 40.0452 65.8492C40.574 65.9578 41.0211 65.9946 41.3272 66.009C41.0339 66.0425 40.5836 66.0713 40.0452 66.009C38.9059 65.8779 38.2393 65.4417 37.3211 65.0502C35.9189 64.4526 35.5199 64.6332 34.4367 64.2513C33.4063 63.8886 32.009 63.1056 30.5908 61.2153ZM62.7823 87.742C61.776 86.8392 61.2904 86.7657 59.7553 85.1838C58.1737 83.5539 57.1801 82.0807 56.5856 81.4703C56.4927 80.7145 56.6545 79.54 56.5504 78.7922C56.2796 76.8587 55.7492 74.4779 55.7492 74.4779L59.7553 80.3901C61.0084 81.6109 62.5467 83.4469 63.4409 84.8642C63.8463 85.505 64.2661 86.0786 64.6908 86.6443L62.7823 87.7436V87.742ZM56.8709 84.7044C56.8709 84.5446 56.7234 82.8397 56.7106 82.6272C57.3548 83.4293 58.7842 85.1758 60.0758 86.1425C61.0132 86.844 61.7679 87.4832 62.34 87.9977L56.9702 91.0897C56.8773 90.5384 56.7459 89.5732 56.709 88.3812C56.6738 87.2067 56.8693 85.5018 56.8693 84.706L56.8709 84.7044ZM11.9592 58.2591C11.9848 58.3039 11.9688 58.3598 11.924 58.3854C11.4913 58.6315 10.251 59.2435 8.63734 58.9782C6.9708 58.705 5.97568 57.6695 5.65199 57.2908C5.61834 57.2509 5.62315 57.1917 5.66481 57.1598C6.01895 56.869 7.53646 55.752 9.43856 56.2618C10.9817 56.6756 11.7477 57.8804 11.9592 58.2591ZM3.2307 65.7405C3.20346 65.6159 3.26275 65.4897 3.37812 65.4369C3.96462 65.1669 5.69365 64.5245 7.51563 65.3698C8.77515 65.9546 9.43856 66.9533 9.73982 67.5382C9.81994 67.6612 9.89686 67.7858 9.96737 67.9153C10.227 68.3851 10.4096 68.906 10.4225 69.4237C10.2702 68.9283 9.97217 68.5145 9.62765 68.1629C9.62444 68.1582 9.61963 68.155 9.61483 68.1518C9.01391 68.5512 7.59255 69.2927 5.91319 68.727C4.55752 68.27 3.54318 67.1323 3.2307 65.7421V65.7405ZM11.8406 75.1825C11.823 75.7769 11.6948 76.8028 11.041 77.8335C9.97698 79.5128 8.25916 80.0354 7.58453 80.1856C7.44833 80.2159 7.31532 80.1376 7.27045 80.005C6.83459 78.7155 7.1054 77.2806 7.99476 76.2355C8.88572 75.1905 10.2622 74.692 11.6083 74.9125C11.7429 74.9349 11.8422 75.0483 11.8374 75.1841L11.8406 75.1825ZM5.47572 52.0289C5.45008 51.981 5.45969 51.9203 5.49975 51.8819C6.69357 50.7554 8.4114 50.4694 9.75905 51.1469C11.1964 51.8691 11.5842 53.3712 11.666 53.777C11.6756 53.8298 11.6515 53.8793 11.6051 53.9049C11.1916 54.1254 9.98019 54.6814 8.4771 54.3427C6.61506 53.924 5.70327 52.446 5.47572 52.0273V52.0289ZM121.93 77.0345C122.045 78.1307 121.763 79.0287 121.537 79.5576C121.489 79.6678 121.363 79.727 121.249 79.687C119.655 79.1309 118.536 77.7727 118.405 76.2371C118.285 74.8326 119.033 73.778 119.382 73.3625C119.462 73.2682 119.602 73.2507 119.701 73.3242C120.257 73.7348 121.714 74.9812 121.93 77.0361V77.0345ZM124.494 60.4163C122.991 60.5825 122.06 61.4933 121.723 61.8768C120.642 61.6387 118.889 61.1641 118.358 60.8685C119.201 59.9194 119.953 58.2591 120.969 57.2205C121.475 56.7028 122.731 56.3001 122.731 56.3001C122.731 56.3001 121.481 56.1339 120.648 56.9009C119.502 57.9555 118.551 60.0344 117.334 60.0216C115.232 60.0009 113.139 56.7012 110.654 57.5465C111.237 55.7425 112.399 54.2995 113.934 53.1347C115.471 51.9714 117.954 51.5464 119.4 50.9024C116.285 49.9708 112.041 51.3786 110.186 54.381C108.333 57.3851 106.563 59.0885 103.383 60.8861C100.204 62.6837 96.15 62.8899 92.5397 61.6994C93.6085 58.4062 97.0602 57.2764 98.3037 53.9512C99.5439 50.6228 102.412 48.937 106.059 48.1892C109.705 47.4398 115.088 47.9447 118.985 47.9958C117.376 47.4318 118.929 46.6088 119.765 46.0751C120.142 45.8355 120.453 45.4679 120.733 45.0685C121.392 45.0269 123.159 44.7633 124.335 43.159C125.593 41.4428 125.183 39.5445 125.023 38.9916C124.997 38.9054 124.917 38.8446 124.826 38.8478C123.023 38.9054 121.411 39.8817 120.65 41.4013C119.927 42.8458 120.233 44.2583 120.413 44.8464C117.137 46.9268 110.745 45.9873 110.655 45.7108C110.554 45.396 113.599 42.6796 114.24 41.0817C114.881 39.4838 110.737 45.0014 109.284 45.2794C107.83 45.5574 105.217 46.7622 105.242 45.9201C105.266 45.0781 106.548 43.7997 107.349 42.042C108.151 40.2843 105.063 45.2858 102.281 46.4602C99.4975 47.6347 98.8485 47.9607 97.1387 49.2598C94.7943 51.0398 93.9771 53.0724 91.708 54.8492C91.6086 50.2712 95.1228 46.2765 94.8312 41.7688C94.3697 43.6415 94.078 44.669 93.4082 46.6776C92.7416 48.6877 90.7033 52.4763 90.8443 54.6671C90.9853 56.8562 89.2242 57.286 87.8028 58.6395C86.3783 59.9913 83.5868 59.9769 81.7296 60.68C79.8723 61.383 79.0727 63.4811 77.0633 63.6393C75.0554 63.7991 76.7171 67.0588 77.3549 68.7478C77.9943 70.4336 78.5071 72.7234 78.6673 75.1202C79.9316 73.6725 81.611 72.0442 80.8771 70.0117C80.14 67.9808 80.1111 66.0361 80.6736 63.986C80.7505 66.4628 80.805 69.4796 81.7152 71.8765C84.3111 69.2607 84.364 65.3986 85.8799 62.3258C85.7774 64.7546 84.6396 66.9038 84.0066 69.1776C86.3382 68.1102 88.6858 67.0844 90.4613 65.0247C90.3475 65.7086 89.8924 66.2598 89.628 66.8926C92.9547 67.511 95.4705 64.0979 98.5825 64.8169C96.6708 64.8841 94.5347 66.1256 92.7704 66.6513C94.8985 67.3672 98.5087 67.8034 100.648 68.5704C102.05 69.0722 103.98 69.51 104.848 70.4863L106.079 70.6301C107.974 70.7436 110.189 70.3712 112.256 70.2706C112.357 70.8602 112.423 71.461 112.477 72.0682C112.033 72.4837 110.894 73.7412 111.04 75.598C111.2 77.6465 112.791 78.7363 113.296 79.0319C113.384 79.083 113.495 79.0718 113.572 79.0031C113.972 78.642 114.947 77.6257 115.048 76.0774C115.147 74.537 114.346 73.0349 112.979 72.1289C113.006 71.5058 113.024 70.8794 113.001 70.245C113.786 70.2354 114.541 70.2802 115.238 70.4256C117.948 70.9896 118.964 73.5271 121.698 73.329C121.703 72.6131 120.32 72.4565 121.489 72.0826C118.9 70.7723 116.37 69.1297 113.577 68.1374C115.879 64.948 120.348 63.5866 123.154 66.891C123.058 64.6555 120.166 64.0963 119.198 62.5303C119.728 62.3434 121.055 62.2523 121.779 62.2523C122.52 63.2526 123.749 63.7847 124.981 63.6121C126.173 63.4459 127.189 62.6454 127.648 61.5269C127.684 61.4358 127.654 61.3319 127.575 61.2728C127.172 60.9692 126.042 60.2453 124.5 60.4163H124.494ZM86.5001 65.0215C88.0592 62.1596 89.5479 58.7689 92.1214 56.7156C90.0398 59.3729 88.6778 62.5128 86.5001 65.0215ZM111.274 67.7171C108.575 69.168 104.417 68.3195 102.532 65.8524C105.584 64.8185 106.966 61.276 110.045 60.2629C113.123 59.2483 116.876 62.0462 119.19 63.7767C115.998 64.1171 113.969 66.2646 111.274 67.7171ZM130.726 57.0879C130.535 57.3995 129.643 58.7417 127.859 59.138C125.949 59.5614 124.491 58.5707 124.199 58.3582C124.185 58.347 124.18 58.3263 124.19 58.3119C124.385 58.0035 125.342 56.6101 127.217 56.2618C129.048 55.9214 130.417 56.829 130.715 57.0415C130.729 57.0527 130.734 57.0719 130.724 57.0879H130.726ZM21.0098 78.9887C20.8976 79.0606 20.7486 79.0383 20.6621 78.9376C20.2599 78.463 19.6045 77.5203 19.534 76.2355C19.4314 74.3468 20.6396 72.4853 22.6042 71.5074C22.6876 71.4658 22.7885 71.4706 22.867 71.5217C23.7372 72.0842 24.0528 72.701 24.1826 73.0397C24.8428 74.7735 23.6506 77.279 21.0114 78.9887H21.0098ZM108.47 73.1995C109.401 75.0243 108.663 76.814 108.393 77.3573C108.346 77.4516 108.244 77.5043 108.139 77.4851C106.21 77.1112 104.795 75.6619 104.624 74.0001C104.475 72.5636 105.306 71.4626 105.641 71.0791C105.704 71.0072 105.805 70.98 105.896 71.012C106.398 71.1846 107.729 71.7486 108.471 73.2011L108.47 73.1995ZM99.6561 40.9219C98.7844 42.1747 97.0842 42.718 95.4898 42.2002C95.4625 41.9637 95.2895 40.23 96.6115 38.8446C97.9575 37.4337 99.7458 37.5471 99.9766 37.5663C100.033 37.7053 100.69 39.4359 99.6561 40.9219ZM103.696 27.14C103.768 27.1624 103.808 27.2359 103.786 27.3078C103.649 27.7632 103.189 28.9904 101.898 29.7366C100.297 30.6634 98.6562 30.1377 98.1771 29.9491C98.1065 29.9219 98.0729 29.8421 98.1017 29.7717C98.2972 29.3068 98.9398 28.022 100.456 27.3397C101.895 26.691 103.215 26.9946 103.694 27.14H103.696ZM6.82498 46.8597C6.75607 46.7527 6.77049 46.612 6.86183 46.5226C7.31212 46.0911 8.69503 44.9566 10.5587 45.2346C11.8022 45.4216 12.621 46.1407 12.9848 46.521C13.0713 46.6104 13.0825 46.7463 13.0152 46.8501C12.7156 47.3055 11.8102 48.4544 10.2398 48.5902C8.89053 48.7069 7.57011 48.0326 6.82498 46.8581V46.8597ZM113.277 39.4838C113.343 40.6886 112.748 41.8471 111.732 42.5422C111.601 42.6317 111.429 42.6333 111.298 42.5422C110.843 42.2274 109.835 41.3789 109.751 39.9616C109.678 38.7184 110.343 37.5248 111.453 36.884C111.588 36.8057 111.758 36.8185 111.88 36.9144C112.303 37.2483 113.203 38.1112 113.277 39.4822V39.4838ZM39.1639 24.561C39.1158 24.4923 39.1254 24.398 39.1863 24.3389C39.5308 24.0065 40.5516 23.15 41.9185 23.2859C42.1829 23.313 43.7725 23.5064 44.109 24.6521C44.3446 25.451 43.8815 26.4162 43.2389 26.7501C42.2614 27.2598 40.5035 26.5008 39.1639 24.5594V24.561ZM107.027 39.324C107.268 40.6551 106.697 42.0372 105.569 42.8953C105.481 42.9624 105.361 42.964 105.266 42.9065C104.851 42.6508 104.008 42.0277 103.662 40.9219C103.231 39.5461 103.741 37.961 104.959 36.8904C105.047 36.8121 105.177 36.8041 105.276 36.8664C105.715 37.1365 106.773 37.9163 107.027 39.324ZM30.6533 27.1863C30.6165 27.0953 30.6645 26.993 30.7575 26.961C31.2975 26.7805 32.823 26.389 34.4367 27.1815C35.8516 27.875 36.4942 29.0639 36.7378 29.6327C36.7891 29.7158 36.8419 29.8005 36.8884 29.8868C37.148 30.3566 37.3307 30.8775 37.3435 31.3952C37.1913 30.8999 36.8932 30.486 36.5487 30.1345C36.5134 30.0977 36.475 30.0658 36.4381 30.0306C35.7667 30.216 34.4158 30.4365 32.9945 29.7398C31.4898 29.0032 30.8584 27.7041 30.6533 27.1895V27.1863ZM45.3333 22.7058C45.2179 22.5924 44.4327 21.7982 44.5321 20.6285C44.617 19.6347 45.306 18.7606 46.2948 18.3915C47.2001 18.9012 47.6584 19.951 47.4165 20.9481C47.1825 21.9149 46.338 22.6291 45.3333 22.7058ZM18.3594 44.5795C18.4074 44.6642 18.4571 44.7489 18.5116 44.8304C18.8385 45.3193 19.2824 45.754 19.7246 46.1806C19.1974 45.8626 18.6638 45.5446 18.1911 45.1036C17.9956 44.9215 17.8177 44.7169 17.6591 44.4964C17.1543 44.1401 16.3739 43.4098 16.1688 42.2018C15.9204 40.7398 16.6992 39.6612 17.0133 39.2936C17.0806 39.2137 17.1896 39.1802 17.2889 39.209C18.8064 39.6644 19.7839 41.0098 19.6942 42.36C19.6173 43.5073 18.7984 44.2567 18.3594 44.5795ZM23.0593 20.1492C22.1924 18.8932 22.4248 17.5478 22.5401 17.094C22.561 17.0109 22.6411 16.9566 22.726 16.9662C23.2404 17.0237 24.915 17.3273 25.7835 18.8709C26.4293 20.0197 26.245 21.1686 26.1392 21.6113C26.12 21.6928 26.0447 21.7471 25.9597 21.7407C25.4774 21.7087 23.9903 21.4994 23.0593 20.1492ZM36.0632 41.2319C36.5631 41.6665 37.8162 42.9481 37.8018 44.9167C37.7906 46.5401 36.9253 47.6619 36.5215 48.1045C36.4301 48.2052 36.2779 48.2227 36.1673 48.1428C35.6754 47.7897 34.4976 46.7878 34.2764 45.0765C34.02 43.103 35.2315 41.7049 35.7026 41.2431C35.802 41.1472 35.9574 41.1424 36.0616 41.2319H36.0632ZM20.4041 33.5811C20.1028 34.1037 19.0628 35.6281 17.1303 35.8086C15.6304 35.9476 14.5247 35.1902 14.0937 34.8371C13.9943 34.7556 13.9655 34.6118 14.0312 34.5015C15.0567 32.763 16.8242 31.833 18.4106 32.1334C19.3545 32.3124 20.0115 32.8845 20.3688 33.2712C20.4473 33.3558 20.4602 33.4821 20.4025 33.5811H20.4041ZM60.7472 54.6942C59.8723 56.4999 59.2745 61.4885 59.2745 63.7719C59.2745 63.9317 61.2968 66.1176 61.518 68.246C61.7407 70.3744 61.7744 73.1548 62.6028 75.0643C63.4313 76.977 64.5962 78.3032 65.7003 79.9267C66.8044 81.5502 68.1585 82.7326 69.3844 84.2043C70.4003 85.4283 71.3954 86.6043 72.4274 87.7708L76.4768 90.1021C73.8504 84.8195 69.2273 80.9094 67.2707 75.0978C65.0898 68.6104 63.5723 61.0667 60.7456 54.6958L60.7472 54.6942ZM61.1558 62.6454C62.6509 64.5245 63.8095 67.3416 63.8143 69.5771C62.9698 67.2649 62.2038 64.8745 61.1558 62.6454ZM99.6657 44.3222C99.5792 44.5795 99.0728 45.9968 97.5329 46.7351C96.1596 47.3934 94.8744 47.0786 94.3761 46.9124C94.1966 47.0978 94.0283 47.2975 93.8761 47.5165C93.9979 47.0003 94.2142 46.4906 94.5155 46.016C95.102 44.8639 96.1227 44.0506 97.3005 43.8652C98.4094 43.6895 99.3084 44.1241 99.6657 44.3238V44.3222ZM90.6824 45.8754C91.5333 46.4203 91.9772 47.4302 91.8041 48.4321C91.7288 48.4624 90.3107 49.0185 89.08 48.1125C87.9823 47.3039 87.9583 46.0144 87.9583 45.8754C88.7915 45.3481 89.8572 45.3481 90.6824 45.8754ZM35.8629 113.892C34.8886 114.592 34.5777 115.132 34.3165 115.563C34.3165 115.563 34.1787 115.552 33.7861 115.504C33.3935 115.456 31.2558 115.25 30.0171 115.205C28.7752 115.164 27.5366 115.215 26.3235 115.475C25.1137 115.736 23.923 116.204 22.8943 116.974C23.742 116.009 24.8637 115.261 26.0751 114.726C27.2914 114.186 28.599 113.858 29.9018 113.631C30.554 113.518 31.2061 113.43 31.8535 113.35C32.4993 113.272 33.1435 113.2 33.7925 113.136C35.0873 113.008 36.3868 112.907 37.6928 112.835C37.8403 112.828 37.7201 112.835 37.8595 112.828C37.8595 112.828 36.8387 113.19 35.8644 113.89L35.8629 113.892ZM43.0594 120.609C43.0081 120.651 42.9569 120.692 42.9056 120.732C42.2566 121.229 41.5611 121.6 40.8673 121.897C40.5211 122.044 40.1654 122.177 39.8273 122.292C39.4892 122.409 39.1639 122.516 38.8578 122.639C38.5501 122.762 38.2649 122.902 37.9957 123.081C37.7249 123.259 37.4749 123.478 37.2458 123.722C36.7891 124.211 36.4381 124.825 36.241 125.505C36.2635 124.797 36.4542 124.074 36.8147 123.418C36.9942 123.091 37.2105 122.776 37.4701 122.49C37.7281 122.202 38.0294 121.945 38.3354 121.723C38.6415 121.499 38.9524 121.301 39.2472 121.109C39.5421 120.918 39.8145 120.729 40.0805 120.526C40.6077 120.125 41.0772 119.686 41.449 119.21C41.6316 118.976 41.771 118.745 41.8432 118.543C41.88 118.443 41.8992 118.35 41.9057 118.268C41.9105 118.19 41.9057 118.11 41.896 118.011C41.888 117.915 41.8704 117.797 41.8464 117.663L41.7614 117.204C41.7294 117.033 41.6957 116.843 41.6701 116.626C41.6445 116.412 41.6236 116.175 41.63 115.908C41.63 115.895 41.63 115.881 41.6316 115.868C41.4265 115.942 41.2166 116.003 41.0115 116.05C40.542 116.156 40.0949 116.191 39.6815 116.194C39.0709 116.194 38.5325 116.129 38.0454 116.057C37.5342 116.07 37.0374 116.119 36.5615 116.228C35.8036 116.392 35.0328 116.795 34.2107 117.198C33.8005 117.399 33.3662 117.594 32.9256 117.751C32.4849 117.907 32.0362 118.033 31.5843 118.129C30.6805 118.323 29.7623 118.385 28.8634 118.331C29.7559 118.209 30.6197 117.974 31.4257 117.628C31.8295 117.455 32.2173 117.257 32.5891 117.036C32.9608 116.814 33.307 116.568 33.6595 116.301C33.9656 116.07 34.2764 115.828 34.6065 115.59C34.9286 115.146 35.4126 114.577 36.1032 114.037C36.9846 113.348 37.8451 112.984 38.4396 112.788C38.4332 112.788 38.4284 112.788 38.4219 112.788C38.7841 112.76 39.1094 112.722 39.3834 112.658C39.6045 112.605 39.792 112.538 39.9347 112.462C40.0052 112.422 40.0661 112.383 40.1221 112.339C40.1814 112.294 40.2439 112.241 40.3128 112.18C40.5884 111.941 40.9522 111.53 41.4265 111.035C41.8848 110.555 42.3784 110.06 42.9328 109.573C43.0674 109.454 43.2052 109.336 43.3495 109.219C43.444 109.116 43.5418 109.015 43.6395 108.919C43.6523 108.906 43.6651 108.893 43.6764 108.882C43.7709 108.791 43.8654 108.703 43.9616 108.619C43.9776 108.604 43.992 108.591 44.0081 108.579C44.1042 108.496 44.202 108.416 44.2997 108.339C44.3125 108.329 44.3238 108.32 44.3366 108.31C44.4391 108.23 44.5401 108.155 44.6426 108.083C44.6987 108.043 44.7564 108.003 44.8125 107.967C44.8333 107.952 44.8542 107.941 44.875 107.927V110.694C44.9615 111.995 44.9022 112.391 45.25 114.601C45.2996 114.916 45.3685 115.224 45.4503 115.523C45.4503 115.52 45.4487 115.515 45.4471 115.512C45.4118 116.226 45.2484 117.497 44.4824 118.832C44.0225 119.635 43.4857 120.215 43.061 120.603L43.0594 120.609ZM89.8235 115.122C89.6713 115.641 89.5383 116.087 89.3893 116.642C89.2418 117.187 89.0031 117.704 88.814 118.236C88.6025 118.834 88.3605 119.411 88.0929 119.978C88.0208 120.181 87.9422 120.387 87.8525 120.6C87.7243 120.907 87.5737 121.237 87.4279 121.546C87.282 121.854 87.1362 122.145 86.9856 122.415C86.835 122.683 86.6779 122.936 86.5129 123.16C86.3494 123.388 86.1748 123.581 85.9761 123.775C85.1909 124.545 84.0099 125.088 82.6942 125.416C82.0356 125.58 81.345 125.699 80.6367 125.783C79.9204 125.868 79.1817 125.927 78.4301 125.989C76.9271 126.116 75.3551 126.258 73.8231 126.702C73.0555 126.918 72.3216 127.228 71.631 127.575C70.9387 127.923 70.2849 128.316 69.6455 128.719C69.0078 129.123 68.3812 129.534 67.7531 129.946C67.5624 130.072 67.3733 130.2 67.1826 130.328C67.1169 130.238 67.0496 130.149 66.9839 130.058C65.851 128.572 64.3254 127.407 62.6974 126.493C61.7247 125.949 60.7055 125.497 59.6735 125.101C60.1991 124.954 60.7071 124.805 61.2119 124.7C61.8849 124.555 62.5435 124.499 63.223 124.577C63.9008 124.652 64.5802 124.834 65.2468 125.077C65.9151 125.317 66.5721 125.612 67.2291 125.911C67.556 126.06 67.8748 126.215 68.1553 126.429C68.4325 126.638 68.6729 126.927 68.7306 127.289C68.7193 126.923 68.5062 126.584 68.2418 126.33C67.9758 126.071 67.6633 125.868 67.3524 125.679C66.7355 125.302 66.1138 124.925 65.4552 124.594C64.7982 124.262 64.1027 123.978 63.3576 123.8C62.9858 123.709 62.5996 123.658 62.2118 123.634C61.8224 123.613 61.4362 123.626 61.0581 123.66C60.3001 123.725 59.5758 123.863 58.8803 123.957C58.5326 124.005 58.1929 124.04 57.858 124.059C57.5215 124.075 57.1833 124.075 56.8484 124.062C56.7395 124.058 56.6305 124.048 56.5215 124.038C55.129 123.61 53.7509 123.215 52.4369 122.765C51.6501 122.493 51.562 122.517 50.8649 122.196C50.8649 122.196 51.7639 122.897 52.3328 123.543C52.9016 124.189 53.5763 125.446 53.9272 126.189C54.9624 126.344 55.9847 126.488 56.9895 126.656C58.7265 126.942 60.4107 127.308 62.0211 127.916C62.824 128.222 63.6011 128.588 64.3383 129.025C65.0738 129.463 65.7724 129.973 66.3878 130.577C66.4471 130.633 66.5048 130.69 66.5608 130.748C66.3365 130.903 66.1122 131.06 65.8926 131.219C66.1442 131.09 66.399 130.967 66.6538 130.842C66.8861 131.084 67.1025 131.339 67.3076 131.606C66.6073 131.504 65.8958 131.461 65.194 131.424C64.0402 131.365 62.8977 131.32 61.8256 131.084C60.7456 130.85 59.7024 130.467 58.6688 130.026C57.6336 129.583 56.6369 129.097 55.778 128.501C55.3486 128.204 54.9512 127.885 54.6114 127.531C54.4416 127.354 54.2797 127.177 54.1387 126.987L54.0297 126.844L53.9064 126.67L53.6612 126.323L53.5234 126.128C53.1131 125.381 52.5266 124.471 51.7014 123.538C50.9755 122.717 50.248 122.087 49.6246 121.614C49.6246 121.614 49.6278 121.614 49.6278 121.616C49.482 121.538 49.3394 121.458 49.2048 121.376C49.0718 121.263 48.9372 121.151 48.809 121.036C48.4228 120.689 48.0574 120.33 47.7434 119.969C47.6312 119.839 47.5254 119.71 47.4277 119.582C47.4197 119.566 47.4133 119.548 47.4052 119.532C47.3956 119.521 47.3876 119.508 47.378 119.497C47.1841 119.278 47.0367 119.037 46.9165 118.783C46.9165 118.783 46.1329 117.621 45.6137 116.066C45.6137 116.068 45.7307 116.303 45.7307 116.305C45.7307 116.864 45.6329 117.827 44.9391 119.048C44.4007 119.996 43.6908 120.673 43.2629 120.988C43.3431 121.135 43.3559 121.154 43.444 121.3C43.7517 121.801 44.1234 122.282 44.5433 122.72C44.6282 122.81 44.7147 122.894 44.8045 122.977C45.1554 123.31 45.5352 123.605 45.9198 123.858C46.729 124.388 47.5623 124.746 48.3731 125.016C48.45 125.058 48.527 125.098 48.6055 125.138L48.7096 125.192L48.7785 125.224L48.8907 125.278C48.958 125.312 49.0061 125.337 49.0622 125.376C49.1183 125.414 49.1872 125.47 49.2673 125.548C49.4307 125.705 49.631 125.926 49.8313 126.138L50.4435 126.771L51.6645 128.033L51.969 128.348L52.1212 128.505L52.3023 128.679C52.5459 128.914 52.8071 129.125 53.0715 129.326C53.6019 129.724 54.1627 130.045 54.73 130.321C54.9047 130.406 55.0809 130.484 55.2572 130.561C55.3037 130.58 55.3485 130.599 55.395 130.619C55.5408 130.679 55.6867 130.738 55.8325 130.793C55.8629 130.804 55.8934 130.817 55.9238 130.828C56.302 130.968 56.6802 131.093 57.0584 131.208C57.4285 131.32 57.7971 131.421 58.164 131.517C59.3066 131.811 60.4876 132.05 61.6894 132.124C63.7037 132.248 65.5721 131.798 67.4662 131.811C68.1697 132.777 68.7257 133.881 69.2193 135C68.9789 134.137 68.7113 133.279 68.3572 132.442C68.2707 132.237 68.1777 132.034 68.08 131.833C68.2658 131.846 68.4517 131.86 68.6392 131.886C68.4389 131.828 68.2354 131.78 68.0319 131.735C67.9438 131.56 67.8524 131.384 67.7547 131.211C67.6425 131.01 67.5159 130.817 67.3877 130.623C67.3669 130.59 67.3428 130.558 67.3204 130.526C68.1985 130.114 69.0863 129.721 69.9708 129.327C71.3361 128.733 72.7174 128.222 74.1132 128.052C75.2413 127.907 76.3934 127.934 77.5744 128.004C77.3741 128.209 77.1866 128.417 77.004 128.618C76.6514 129.008 76.3197 129.377 75.9399 129.7C75.5618 130.027 75.1483 130.326 74.7125 130.596C73.8391 131.138 72.8825 131.577 71.9226 132.001C72.9402 131.742 73.9577 131.469 74.9512 131.064C75.448 130.863 75.9351 130.622 76.4047 130.337C76.879 130.054 77.3132 129.708 77.7251 129.385C78.1369 129.061 78.5327 128.749 78.9397 128.514C79.1833 128.372 79.4349 128.25 79.6945 128.147C79.9829 128.064 80.3915 127.907 80.7889 127.589C81.1928 127.265 81.2713 127.023 81.5966 126.784C81.8754 126.579 82.3369 126.376 83.1253 126.432C82.3481 126.413 81.9331 126.638 81.6991 126.846C81.4107 127.102 81.3578 127.36 80.986 127.682C80.6591 127.963 80.313 128.097 80.0774 128.166C80.2954 128.179 80.5117 128.191 80.7329 128.199C81.5213 128.226 82.3241 128.217 83.1445 128.143C83.2615 128.132 83.3801 128.121 83.4971 128.107C83.6717 128.086 83.8448 128.064 84.0211 128.036C84.0243 128.036 84.0291 128.036 84.0323 128.035C84.1957 128.009 84.3608 127.979 84.5258 127.947C84.5499 127.942 84.5739 127.937 84.598 127.932C84.7566 127.901 84.9168 127.864 85.0755 127.825C85.0995 127.819 85.1251 127.813 85.1492 127.806C85.3142 127.765 85.4793 127.72 85.6444 127.67C86.2068 127.503 86.7693 127.269 87.3157 126.975C87.5032 126.648 87.7468 126.141 87.883 125.484C88.0544 124.654 87.883 124.379 88.072 123.722C88.3829 122.635 89.2434 122.001 89.2707 122.022C89.2963 122.043 88.5271 122.647 88.2515 123.741C88.0849 124.404 88.2403 124.69 88.056 125.539C87.9342 126.1 87.7436 126.539 87.6057 126.817C87.5881 126.875 87.5737 126.934 87.5561 126.993C87.3285 127.715 87.0305 128.405 86.6298 129.04C86.2292 129.673 85.7309 130.251 85.1267 130.713C84.5338 131.178 83.7919 131.489 83.0195 131.798C82.2504 132.105 81.4459 132.426 80.7841 132.932C81.5405 132.578 82.3465 132.443 83.1638 132.304C83.574 132.234 83.989 132.162 84.4105 132.057C84.8303 131.953 85.2614 131.812 85.6684 131.616C86.4872 131.232 87.2244 130.678 87.8621 130.031C88.5015 129.382 89.0351 128.632 89.4822 127.851C89.7033 127.461 89.9052 127.063 90.0895 126.661C90.1729 126.64 90.2546 126.619 90.3379 126.603C91.1792 126.437 92.0493 126.462 92.9563 126.45C93.8633 126.437 94.8392 126.389 95.8295 126.025C96.3198 125.842 96.8182 125.561 97.2396 125.19C97.6595 124.825 98.0056 124.395 98.2876 123.938C98.5696 123.482 98.7956 122.99 98.959 122.472C98.9991 122.343 99.0376 122.212 99.0696 122.079L99.1161 121.88C99.1289 121.821 99.1465 121.731 99.1594 121.642C99.2138 121.29 99.2331 120.929 99.185 120.571C99.0985 119.852 98.7043 119.19 98.1418 118.7C97.9976 118.575 97.8566 118.463 97.6899 118.348C97.5585 118.256 97.4479 118.182 97.331 118.109L96.7188 117.731L95.9641 117.266L96.315 117.308C96.7829 117.366 97.1499 117.433 97.4303 117.543C97.8277 117.7 98.278 118.128 98.7235 118.697C99.1802 119.253 99.6417 119.921 100.353 120.481C100.445 120.547 100.529 120.616 100.624 120.673L100.908 120.838C101.108 120.926 101.302 121.018 101.51 121.071C101.714 121.127 101.933 121.167 102.121 121.189C102.313 121.215 102.496 121.231 102.682 121.248L104.901 121.461L102.842 120.624C102.672 120.555 102.497 120.485 102.335 120.411C102.169 120.338 102.037 120.267 101.903 120.184C101.768 120.104 101.653 119.994 101.537 119.898L101.384 119.729C101.334 119.673 101.294 119.607 101.247 119.55C101.199 119.492 101.169 119.427 101.13 119.366C101.089 119.302 101.052 119.234 101.015 119.162C100.94 119.024 100.872 118.871 100.803 118.719C100.669 118.411 100.542 118.073 100.398 117.72C100.254 117.369 100.094 116.995 99.8676 116.608C99.6449 116.225 99.3517 115.822 98.9623 115.466C98.3838 114.948 97.7396 114.64 97.1948 114.393L95.6772 113.735C94.6885 113.31 93.7239 112.893 92.796 112.454C92.3794 112.255 91.9724 112.053 91.575 111.845C91.3843 111.594 91.1744 111.356 90.9436 111.137C90.8347 111.039 90.7209 110.945 90.6071 110.851C90.5671 110.817 90.5286 110.784 90.4885 110.75C90.4228 110.702 90.3555 110.654 90.2882 110.608C90.2882 110.608 90.3411 112.022 90.2882 112.812C90.2354 113.602 89.9758 114.604 89.8235 115.125V115.122ZM96.1388 120.868C96.1628 120.868 96.2045 120.884 96.2381 120.895C96.3775 120.943 96.5249 121.046 96.5906 121.204C96.6259 121.28 96.6467 121.367 96.6595 121.458C96.6628 121.48 96.6659 121.501 96.6643 121.552L96.6612 121.681C96.6579 121.768 96.6515 121.856 96.6435 121.944C96.6083 122.293 96.5281 122.645 96.4047 122.982C96.2814 123.318 96.1195 123.633 95.916 123.903C95.7141 124.173 95.4625 124.398 95.1484 124.598C94.8344 124.794 94.469 124.954 94.078 125.083C93.687 125.213 93.2704 125.312 92.8361 125.403C92.0317 125.574 91.1744 125.721 90.3571 126.029C90.4405 125.83 90.5206 125.628 90.5959 125.427C90.7513 125.018 90.902 124.59 91.027 124.129C91.0574 124.014 91.0878 123.898 91.1151 123.778L91.1551 123.599L91.1744 123.508L91.1792 123.486C91.1792 123.486 91.1808 123.481 91.1824 123.479L91.1888 123.468C91.2193 123.409 91.2641 123.311 91.3314 123.187C91.4628 122.933 91.6775 122.594 91.9035 122.116C91.9596 121.996 92.0173 121.864 92.0701 121.718C92.0974 121.65 92.123 121.565 92.1487 121.49L92.1935 121.349C92.3858 120.964 92.5669 120.555 92.7223 120.111C92.7464 120.042 92.7672 119.969 92.7896 119.898C92.2977 119.769 92.0076 119.55 91.8346 119.373C91.4452 118.973 91.4051 118.669 90.9164 117.839C90.6392 117.367 89.5623 116.303 89.5783 116.292C89.596 116.279 90.8571 117.188 91.1407 117.615C91.6327 118.356 91.6038 118.794 92.0141 119.166C92.1807 119.318 92.3922 119.574 92.8682 119.649L95.3263 120.565L95.9128 120.782L96.1371 120.87L96.1388 120.868ZM125.479 68.0095C125.395 67.9312 125.372 67.8082 125.422 67.7043C125.664 67.193 126.335 66.017 127.76 65.3746C129.574 64.5565 131.277 65.2068 131.846 65.4737C131.952 65.5232 132.016 65.6367 131.997 65.7517C131.7 67.5174 130.375 68.8772 128.763 69.1265C127.132 69.379 125.89 68.3883 125.481 68.008L125.479 68.0095ZM124.842 71.8509C124.766 71.7263 124.81 71.5649 124.935 71.4898C125.441 71.183 126.263 70.8059 127.289 70.8155C129.067 70.833 130.747 72.0123 131.676 73.8355C131.748 73.9777 131.686 74.1503 131.537 74.2062C130.913 74.4411 129.574 74.8134 128.008 74.3484C126.162 73.7987 125.191 72.4373 124.842 71.8509ZM123.473 75.1905C123.483 75.0611 123.585 74.9588 123.717 74.9476C124.3 74.8965 125.818 74.8933 127.007 76.0374C128.093 77.084 128.49 78.6931 128.048 80.1967C128.011 80.3246 127.888 80.4077 127.757 80.3885C127.125 80.3022 125.479 79.9411 124.372 78.4119C123.448 77.1352 123.432 75.7786 123.473 75.1905Z" />
  <style>
    @media (prefers-color-scheme: light) { :root { filter: invert(100%); } }
    @media (prefers-color-scheme: dark) { :root { filter: none; } }
  </style>
</svg>
