<svg
  width="24"
  height="24"
  viewBox="0 0 24 24"
  fill="none"
  xmlns="http://www.w3.org/2000/svg"
>
  <path
    d="M10.7636 2.80514C11.1528 1.60744 12.8472 1.60743 13.2364 2.80514L14.6268 7.08447C14.8009 7.6201 15.3 7.98275 15.8632 7.98275H20.3628C21.6221 7.98275 22.1457 9.59425 21.1269 10.3345L17.4867 12.9792C17.031 13.3103 16.8404 13.8971 17.0144 14.4327L18.4049 18.712C18.794 19.9097 17.4232 20.9057 16.4044 20.1655L12.7641 17.5207C12.3085 17.1897 11.6915 17.1897 11.2359 17.5207L7.59568 20.1655C6.57685 20.9057 5.20602 19.9097 5.59518 18.712L6.98562 14.4327C7.15966 13.8971 6.969 13.3103 6.51337 12.9792L2.87315 10.3345C1.85432 9.59425 2.37793 7.98275 3.63727 7.98275H8.13683C8.70002 7.98275 9.19916 7.6201 9.3732 7.08447L10.7636 2.80514Z"
    fill="black"
  />
</svg>
