<svg
  width="24"
  height="24"
  viewBox="0 0 24 24"
  fill="none"
  xmlns="http://www.w3.org/2000/svg"
>
  <g clip-path="url(#clip0_5341_4037)">
    <path
      d="M10.4719 1.61601C10.9554 0.127999 13.0605 0.127996 13.544 1.61601L15.2715 6.93259C15.4877 7.59804 16.1078 8.04859 16.8075 8.04859H22.3977C23.9623 8.04859 24.6128 10.0507 23.347 10.9703L18.8245 14.2562C18.2584 14.6674 18.0215 15.3964 18.2378 16.0619L19.9652 21.3785C20.4487 22.8665 18.7456 24.1039 17.4798 23.1842L12.9573 19.8984C12.3912 19.4871 11.6247 19.4871 11.0586 19.8984L6.53606 23.1842C5.27028 24.1039 3.56719 22.8665 4.05067 21.3785L5.77814 16.0619C5.99436 15.3964 5.75749 14.6674 5.19142 14.2562L0.668865 10.9703C-0.596912 10.0507 0.0536096 8.04859 1.61819 8.04859H7.20838C7.90808 8.04859 8.52821 7.59804 8.74443 6.93259L10.4719 1.61601Z"
      fill="black"
    />
  </g>
  <defs>
    <clipPath id="clip0_5341_4037">
      <rect
        width="24"
        height="24"
        fill="white"
      />
    </clipPath>
  </defs>
</svg>
