<svg
  width="24"
  height="24"
  viewBox="0 0 24 24"
  fill="none"
  xmlns="http://www.w3.org/2000/svg"
>
  <g clip-path="url(#clip0_179_7)">
    <path
      fill-rule="evenodd"
      clip-rule="evenodd"
      d="M12.0079 2.91919L10.5168 7.50846C10.0511 8.94176 8.71543 9.91217 7.20838 9.91217H2.38293L6.2868 12.7485C7.50603 13.6343 8.01621 15.2045 7.5505 16.6378L6.05936 21.2271L9.96323 18.3907C11.1825 17.5049 12.8334 17.5049 14.0527 18.3907L17.9565 21.2271L16.4654 16.6378C15.9997 15.2045 16.5099 13.6343 17.7291 12.7485L21.633 9.91217H16.8075C15.3005 9.91217 13.9648 8.94176 13.4991 7.50846L12.0079 2.91919ZM13.544 1.61601C13.0605 0.127996 10.9554 0.127999 10.4719 1.61601L8.74443 6.93259C8.52821 7.59805 7.90808 8.04859 7.20838 8.04859H1.61819C0.0536096 8.04859 -0.596912 10.0507 0.668865 10.9703L5.19142 14.2562C5.75749 14.6674 5.99436 15.3964 5.77814 16.0619L4.05067 21.3785C3.56719 22.8665 5.27028 24.1039 6.53606 23.1842L11.0586 19.8984C11.6247 19.4871 12.3912 19.4871 12.9573 19.8984L17.4798 23.1842C18.7456 24.1039 20.4487 22.8665 19.9652 21.3785L18.2378 16.0619C18.0215 15.3964 18.2584 14.6674 18.8245 14.2562L23.347 10.9703C24.6128 10.0507 23.9623 8.04859 22.3977 8.04859H16.8075C16.1078 8.04859 15.4877 7.59804 15.2715 6.93259L13.544 1.61601Z"
      fill="black"
    />
  </g>
  <defs>
    <clipPath id="clip0_179_7">
      <rect
        width="24"
        height="24"
        fill="white"
      />
    </clipPath>
  </defs>
</svg>
