<svg
  width="24"
  height="24"
  viewBox="0 0 24 24"
  fill="none"
  xmlns="http://www.w3.org/2000/svg"
>
  <path
    fill-rule="evenodd"
    clip-rule="evenodd"
    d="M13 2.75C11.2051 2.75 9.75 4.20507 9.75 6C9.75 7.79493 11.2051 9.25 13 9.25C14.7949 9.25 16.25 7.79493 16.25 6C16.25 4.20507 14.7949 2.75 13 2.75ZM8.25 6C8.25 3.37665 10.3766 1.25 13 1.25C15.6234 1.25 17.75 3.37665 17.75 6C17.75 8.62335 15.6234 10.75 13 10.75C10.3766 10.75 8.25 8.62335 8.25 6ZM11.25 14C11.25 13.5858 11.5858 13.25 12 13.25H16C17.3004 13.25 18.5192 13.8536 19.3979 14.8787C20.2735 15.9003 20.75 17.2642 20.75 18.6667V21C20.75 21.4142 20.4142 21.75 20 21.75C19.5858 21.75 19.25 21.4142 19.25 21V18.6667C19.25 17.5937 18.8837 16.5837 18.259 15.8549C17.6374 15.1297 16.8214 14.75 16 14.75H12C11.5858 14.75 11.25 14.4142 11.25 14ZM7.53033 13.4697C7.23744 13.1768 6.76257 13.1768 6.46967 13.4697C6.17678 13.7626 6.17678 14.2374 6.46967 14.5303L9.18932 17.25H2.07849C1.66428 17.25 1.32849 17.5858 1.32849 18C1.32849 18.4142 1.66428 18.75 2.07849 18.75H9.18932L6.46967 21.4697C6.17678 21.7626 6.17678 22.2374 6.46967 22.5303C6.76257 22.8232 7.23744 22.8232 7.53033 22.5303L11.5303 18.5303C11.8232 18.2374 11.8232 17.7626 11.5303 17.4697L7.53033 13.4697Z"
    fill="black"
  />
</svg>
